<?xml version="1.0" encoding="utf-8"?>
<!-- Generator: Adobe Illustrator 22.1.0, SVG Export Plug-In . SVG Version: 6.00 Build 0)  -->
<svg version="1.1" id="Layer_1" xmlns="http://www.w3.org/2000/svg" xmlns:xlink="http://www.w3.org/1999/xlink" x="0px" y="0px"
	 viewBox="0 0 533.2 555.1" style="enable-background:new 0 0 533.2 555.1;" xml:space="preserve">
<style type="text/css">
	.st0{fill:#7B7B7B;}
	.st1{fill:#505050;}
	.st2{fill:#C4C4C4;}
	.st3{fill:#848484;}
	.st4{fill:#CCCCCC;}
	.st5{fill:#E6E6E6;}
	.st6{fill:#1A1A1A;}
	.st7{fill:#4D4D4D;}
	.st8{fill:#333333;}
	.st9{fill:#666666;}
	.st10{fill:#808080;}
	.st11{fill:#B3B3B3;}
	.st12{fill:#999999;}
	.st13{fill:#F2F2F2;}
	.st14{fill:#C0C0C0;}
	.st15{fill:#E7E7E7;}
	.st16{fill:#808080;stroke:#808080;stroke-width:3.0483;}
	.st17{fill:#1A1A1A;stroke:#1A1A1A;stroke-width:3.0483;}
	.st18{stroke:#000000;stroke-width:3.0483;}
	.st19{fill:#4D4D4D;stroke:#4D4D4D;stroke-width:3.0483;}
	.st20{fill:#333333;stroke:#333333;stroke-width:3.0483;}
	.st21{fill:#666666;stroke:#666666;stroke-width:3.0483;}
	.st22{fill:#808080;stroke:#808080;stroke-width:3.0483;stroke-linecap:square;stroke-linejoin:round;}
	.st23{fill:#1A1A1A;stroke:#1A1A1A;stroke-width:3.0483;stroke-linecap:square;stroke-linejoin:round;}
	.st24{stroke:#000000;stroke-width:3.0483;stroke-linecap:square;stroke-linejoin:round;}
	.st25{fill:#4D4D4D;stroke:#4D4D4D;stroke-width:3.0483;stroke-linecap:square;stroke-linejoin:round;}
	.st26{fill:#333333;stroke:#333333;stroke-width:3.0483;stroke-linecap:square;stroke-linejoin:round;}
	.st27{fill:#666666;stroke:#666666;stroke-width:3.0483;stroke-linecap:square;stroke-linejoin:round;}
	.st28{fill:#241815;}
	.st29{fill:#FFFFFF;}
	.st30{fill:#241815;stroke:#241815;stroke-width:0.5669;stroke-miterlimit:22.9256;}
	.st31{fill:#2B457B;}
	.st32{fill:none;}
</style>
<g>
	<path class="st0" d="M77.9,182.8c-11.7,0-23.5,0-35.2,0c-1.3-10.9,0.7-24.9-0.7-34.8C64.2,148,76.6,160.7,77.9,182.8z"/>
	<path class="st1" d="M42.7,189.1c0,11.3,0,22.6,0,33.9c-21-1.9-32.6-13.2-34.5-34.2C19.8,189.1,32.5,188,42.7,189.1z"/>
	<path class="st2" d="M38.5,150.9c0.3,11.7,0.6,23.4,1,35.2c-10.9,1.6-24.9,0-34.8,1.6C4.1,165.6,16.4,152.8,38.5,150.9z"/>
	<path class="st3" d="M46.4,186.1c11.3-0.3,22.6-0.6,33.8-0.9c-1.3,21-12.3,32.9-33.2,35.4C47.1,208.9,45.7,196.3,46.4,186.1z"/>
</g>
<g>
	<path class="st4" d="M180.1,155.4c-6.7,3-14.7,11.6-17.6,20.2l-7.2,0c0.7-8.8,8.5-17.3,13-20.2H180.1z"/>
	<path class="st5" d="M156.2,155.4c-0.9,4,0.5,13.5,6.3,20.2l-7.2,0c-6.6-6.1-9.4-15.3-9.5-20.2H156.2z"/>
	<path d="M135.7,156.4c0.8,7.3,6.5,17.6,13.8,23l-2.3,6.8c-8.2-3.4-13.8-13.5-15.2-18.6L135.7,156.4z"/>
	<path class="st6" d="M128.3,179.1c3.5,2.1,13,3.7,21.2,0.3l-2.3,6.9c-7.8,4.4-17.5,4.2-22.1,2.8L128.3,179.1z"/>
	<path class="st7" d="M122.8,198.9c7.2,1.5,18.8-0.7,26.1-6l5.8,4.3c-5.8,6.7-17.1,9-22.4,8.7L122.8,198.9z"/>
	<path class="st8" d="M142.1,213c3.1-2.7,7.5-11.2,6.8-20.1l5.8,4.3c1.8,8.8-1.4,17.9-4.2,21.9L142.1,213z"/>
	<path class="st9" d="M159.3,224.3c3.7-6.3,5.1-18.1,2.3-26.7l5.8-4.2c4.6,7.6,3.3,19,1.4,24L159.3,224.3z"/>
	<path class="st10" d="M178.6,210.3c-1.6-3.8-8.4-10.6-17-12.7l5.9-4.2c9,1,16.6,6.9,19.5,10.8L178.6,210.3z"/>
	<path class="st11" d="M194.7,197.4c-4.9-5.4-15.6-10.4-24.7-10.5l-2.2-6.9c8.6-2,19.1,2.8,23.2,6.1L194.7,197.4z"/>
	<path class="st12" d="M187.3,174.7c-4.1,0.4-12.7,4.7-17.3,12.3l-2.2-6.9c3.7-8.2,11.7-13.7,16.3-15.3L187.3,174.7z"/>
</g>
<g>
	<path class="st12" d="M235.2,171.2c13.4,3.1,20.7,3.3,26.9-9.1c-0.1,5.4-3.9,25.4-26.9,22.1V171.2z"/>
	<path class="st11" d="M253.3,155.2c0.8,12.6,0.9,22.6-12.5,29.2c19,1.8,27.7-12.3,26-29.2H253.3z"/>
	<path class="st10" d="M284.3,155.2c-1.7,13.9-1.2,21.2,11.9,26.1c-5.5,0.5-26.6-1.2-24.8-26.1H284.3z"/>
	<path class="st9" d="M301.8,171.8c-12.3,2.1-22.1,3.1-30.1-9.4c0.2,18.4,14.1,25.7,30.1,23.1V171.8z"/>
	<path class="st7" d="M301.8,203.7c-13.4-3.1-20.7-3.3-26.9,9.1c0.1-5.4,3.9-25.4,26.9-22.1V203.7z"/>
	<path class="st8" d="M283.7,219.7c-0.8-12.6-0.9-22.6,12.5-29.2c-19-1.8-27.7,12.3-26,29.2H283.7z"/>
	<path d="M252.7,219.7c1.7-13.9,1.2-21.2-11.9-26.1c5.5-0.5,26.6,1.2,24.8,26.1H252.7z"/>
	<path class="st6" d="M235.2,203.1c12.3-2.1,22.1-3.1,30.1,9.4c-0.2-18.4-14.1-25.7-30.1-23.1L235.2,203.1L235.2,203.1z"/>
</g>
<g>
	<path class="st7" d="M376.2,202.3c-10.7,8.3-23.5,2.8-29.6-10.8c3,13,11.1,20.8,18.2,23.3c2.6-0.7,5.7-1.8,8.3-2.5
		C373.9,210.2,375.4,204.5,376.2,202.3z"/>
	<path class="st9" d="M398.3,195.3c4.6,12.7-4.6,23.3-19.4,24.8c13.3,1.2,23.2-4.2,27.8-10.2c0.1-2.7,0.1-6,0.2-8.7
		C405,199.9,400.1,196.7,398.3,195.3z"/>
	<path class="st11" d="M398.4,172.1c13.5-0.4,20.7,11.6,17.6,26.1c5.3-12.3,3.2-23.4-1.1-29.6c-2.6-1-5.7-1.9-8.2-2.9
		C404.9,167,400.3,170.8,398.4,172.1z"/>
	<path class="st4" d="M376.4,164.7c3.8-13,17.4-16.1,30.3-8.7c-10.1-8.8-21.2-10.3-28.4-8.1c-1.7,2.1-3.6,4.8-5.3,6.9
		C373.6,157,375.7,162.6,376.4,164.7z"/>
	<path d="M362.6,183.4c-11.2-7.6-10-21.5,1.1-31.5c-11.5,6.8-16.4,17-16.5,24.5c1.5,2.3,3.5,4.9,5,7.2
		C354.4,183.7,360.4,183.4,362.6,183.4z"/>
	<path class="st8" d="M354.3,207.3c9.8,9,17.9,0.1,21.8-5.3c8.3-11.7,20.4,2.4,8.8,11.7C378.1,219.2,361.5,217.5,354.3,207.3z"/>
	<path class="st10" d="M396.3,217.6c11.6-6.5,5.6-17,1.7-22.3c-8.6-11.5,8.6-18.7,13.8-4.8C414.9,198.7,408.2,213.9,396.3,217.6z"/>
	<path class="st12" d="M419.1,180.8c-2.6-13-14.4-10.6-20.7-8.5c-13.6,4.6-15.1-13.9-0.3-14.6C406.8,157.3,419.2,168.4,419.1,180.8z
		"/>
	<path class="st5" d="M391.1,147.8c-13.2-1.5-14.6,10.5-14.5,17.1c0.2,14.4-17.9,10.1-14-4.2C364.9,152.2,379.3,143.8,391.1,147.8z"
		/>
	<path class="st6" d="M351.1,164.2c-5.5,12.1,5.4,17.1,11.8,19.1c13.7,4.3,4.1,20.2-8.4,12C347.1,190.5,343.7,174.2,351.1,164.2z"/>
</g>
<g>
	<path d="M35.7,301.2c-2.4-0.9-4.1-3.2-4.1-5.9c0-3.5,2.8-6.2,6.2-6.2c3.5,0,6.2,2.8,6.2,6.2c0,2.7-1.7,5-4.1,5.9l0,0 M37.8,292.7
		c-1.5,0-2.6,1.2-2.6,2.6c0,1.5,1.2,2.6,2.6,2.6c1.5,0,2.6-1.2,2.6-2.6C40.5,293.9,39.3,292.7,37.8,292.7z"/>
	<path class="st13" d="M37.9,271.2c5.3,3.6,5.4,11.8,0,15.3C32.4,282.8,32.2,274.5,37.9,271.2z"/>
	<path class="st5" d="M20.9,278c6.3-1.2,12.1,4.5,10.8,10.8C25.3,290.1,19.2,284.4,20.9,278z"/>
	<path class="st4" d="M13.8,294.9c3.6-5.3,11.8-5.4,15.3,0C25.4,300.4,17.1,300.6,13.8,294.9z"/>
	<path class="st14" d="M20.6,311.8c-1.2-6.3,4.5-12.1,10.8-10.8C32.7,307.5,27,313.5,20.6,311.8z"/>
	<path class="st10" d="M54.4,312.2c-6.3,1.2-12.1-4.5-10.8-10.8C50.1,300,56.1,305.8,54.4,312.2z"/>
	<path class="st7" d="M61.6,295.3c-3.6,5.3-11.8,5.4-15.3,0C49.9,289.8,58.3,289.6,61.6,295.3z"/>
	<path class="st6" d="M54.8,278.4c1.1,6.3-4.5,12.1-10.8,10.8C42.6,282.7,48.4,276.7,54.8,278.4z"/>
	<path d="M51.9,262.7c3.3,5.5,0,12.9-6.4,13.9C42,271,45.3,263.3,51.9,262.7z"/>
	<path class="st15" d="M24.4,262.5c6.2,1.5,9.3,9,5.6,14.3C23.5,275.4,20.3,267.7,24.4,262.5z"/>
	<path class="st5" d="M5.6,281.1c5.5-3.3,12.9-0.1,14,6.3C14,290.9,6.3,287.7,5.6,281.1z"/>
	<path class="st11" d="M4.9,306.9c1.8-6.2,9.4-8.9,14.5-4.9C17.7,308.3,9.9,311.2,4.9,306.9z"/>
	<path class="st4" d="M24.7,327.3c-3.4-5.4-0.3-12.9,6.1-14.1C34.3,318.9,31.2,326.6,24.7,327.3z"/>
	<path class="st12" d="M49.5,328c-6.1-1.8-8.8-9.5-4.7-14.6C51.1,315.2,53.9,323,49.5,328z"/>
	<path class="st9" d="M69.7,309.6c-5.6,3.1-12.9-0.3-13.8-6.7C61.7,299.5,69.3,303,69.7,309.6z"/>
	<path class="st8" d="M70.8,282.6c-1.7,6.2-9.3,9-14.5,5C57.9,281.3,65.7,278.3,70.8,282.6z"/>
</g>
<g>
	<path class="st9" d="M141.5,305.7c5.4,1,6,1.1,6,1.1c0,0,0,0,0,0c0,0-0.4-0.1,8.8,1.7c-2.8-10-2.7-9.6-2.7-9.5c0,0,0,0,0,0
		c0,0-0.2-0.7-1.8-6.5c-4.8-17-27-14.6-27-14.6l-0.1,0.1C124.8,277.9,125.7,302.7,141.5,305.7z"/>
	<path class="st8" d="M185,278.2L185,278.2c-0.1-0.1-22.2-2.8-27.2,14.1c-1.7,5.7-1.9,6.4-1.9,6.5c0,0,0,0,0,0c0,0,0.1-0.5-2.8,9.5
		c9.3-1.6,8.9-1.5,8.9-1.5c0,0,0,0,0,0c0,0,0.7-0.1,6-1C183.8,303,185,278.2,185,278.2z"/>
	<path d="M155.1,307.8L155.1,307.8c0.1,0,16.8-18.4,7.6-34.1c-3.1-5.3-3.5-6-3.5-6c0,0,0,0,0,0c0,0,0.3,0.4-5.1-8.8
		c-5,9.5-4.8,9.1-4.7,9c0,0,0,0,0,0c0,0-0.4,0.7-3.2,6.2C137.7,290.3,155.1,307.8,155.1,307.8z"/>
	<path class="st7" d="M197.6,306.8l0-0.1c0,0-16.5-18.6-30.6-8.4c-4.8,3.4-5.4,3.8-5.4,3.9c0,0,0,0,0,0c0,0,0.4-0.3-7.9,5.7
		c8.5,5.5,8.2,5.3,8.1,5.3c0,0,0,0,0,0c0,0,0.6,0.4,5.5,3.6C181.9,326.1,197.6,306.8,197.6,306.8z"/>
	<path class="st6" d="M177.2,285.4L177.2,285.4c0-0.1-16.5-2.1-20.2,10.5c-1.3,4.3-1.4,4.8-1.4,4.8c0,0,0,0,0,0c0,0,0.1-0.3-2.1,7
		c6.9-1.2,6.6-1.1,6.6-1.1c0,0,0,0,0,0c0,0,0.5-0.1,4.5-0.8C176.3,303.8,177.2,285.4,177.2,285.4z"/>
	<path class="st10" d="M155.7,307.1l0-0.1c0,0-16.3-18.8-30.5-8.8c-4.8,3.4-5.4,3.8-5.4,3.8c0,0,0,0,0,0c0,0,0.4-0.3-8,5.6
		c8.5,5.6,8.1,5.4,8.1,5.4c0,0,0,0,0,0c0,0,0.6,0.4,5.5,3.7C139.8,326.3,155.7,307.1,155.7,307.1z"/>
	<path class="st12" d="M145,305.8c4,0.7,4.4,0.8,4.5,0.8c0,0,0,0,0,0c0,0-0.3-0.1,6.5,1.2c-2.1-7.4-2-7.1-2-7.1c0,0,0,0,0,0
		c0,0-0.1-0.5-1.3-4.8c-3.5-12.6-20-10.8-20-10.8l0,0.1C132.6,285.2,133.2,303.6,145,305.8z"/>
</g>
<g>
	<path class="st16" d="M519.2,165.6c-4.3-8.2-12.2-14.2-21.6-15.8l-9.1,15.7L519.2,165.6z"/>
	<path class="st17" d="M493.9,149.5c-9.2-0.4-18.3,3.5-24.4,10.8l9.1,15.7L493.9,149.5z"/>
	<path class="st18" d="M467.2,163.3c-5,7.8-6.2,17.6-2.9,26.6l18.2,0L467.2,163.3z"/>
	<path class="st19" d="M465.9,193.3c4.3,8.2,12.2,14.2,21.6,15.8l9.1-15.7L465.9,193.3z"/>
	<path class="st20" d="M491.2,209.4c9.2,0.4,18.3-3.5,24.4-10.8l-9.1-15.7L491.2,209.4z"/>
	<path class="st21" d="M517.8,195.6c5-7.8,6.2-17.6,2.9-26.6l-18.2,0L517.8,195.6z"/>
</g>
<g>
	<path class="st22" d="M255.7,262.5c-9.2,2.9-18.7,11.3-17.5,20.8c0,10.7,10.7,19.1,21.4,22.6c-8.3-9.5-14.3-21.4-9.1-34.5
		C253.1,265.9,255.7,262.5,255.7,262.5z"/>
	<path class="st23" d="M235.9,285.8c-3.7,9.4-0.1,21.3,7.1,26.1c9.5,7.1,22.6,3.6,32.2-4.8c-13.1,2.4-27.4,0-34.6-11.8
		C237.3,290,235.9,285.8,235.9,285.8z"/>
	<path class="st24" d="M244.7,315.7c6.7,8.1,18.6,11.7,28.1,8.1c10.7-3.6,13.1-17.9,11.9-29.8c-4.8,13.1-15.5,22.6-29.3,23.4
		C249,317,244.7,315.7,244.7,315.7z"/>
	<path class="st25" d="M276.8,323.9c10.3-2.5,21-12.1,21-22.8c0-7.1-4.8-13.1-10.7-17.9c-3.6-2.4-7.1-2.4-10.7-4.8
		c9.5,9.5,15.5,25,7.2,37.1C280.1,320.9,276.8,323.9,276.8,323.9z"/>
	<path class="st26" d="M299.9,298.3c1.5-10.2-0.9-23.4-10.4-28.1c-6-3.6-15.5-3.6-21.5,2.4c-2.4,2.4-7.1,2.4-7.1,7.1
		c11.9-4.8,27.4-3.6,34.6,9.1C298.6,294.1,299.9,298.3,299.9,298.3z"/>
	<path class="st27" d="M287.5,266.7c-7.5-6.1-19.5-9.6-27.8-3.7c-9.5,6-11.9,19.1-6,29.8c1.2-13.1,10.7-23.8,23.5-26.1
		C283.2,266.1,287.5,266.7,287.5,266.7z"/>
</g>
<g>
	<g>
		<path class="st9" d="M372.8,320.6c-3.8-8-13.6-12.4-17.7-12.4c-4.1,0-6.5,3.8-5.3,6.2c1.2,2.4,3.8,3,6.8,1.8
			C359.5,315,369.3,317,372.8,320.6z"/>
		<path class="st7" d="M379.3,320.8c-0.3-7.4-8-24.8-21-29.8c-6.2-3-10.9,5-3.5,7.7C361.2,300.9,371.4,306.3,379.3,320.8z"/>
		<path class="st10" d="M383.9,319.5c1.8-8.6-3.8-33.9-13.3-44.3c-3.2-4.1-11.8,1.8-6.5,7.1C369.4,287.6,381.8,304.5,383.9,319.5z"
			/>
		<path class="st6" d="M388.1,265.1c1.6,0,5,0.7,6.2,3.2c-2.7,7.1-5.3,35.7-6.2,53.4c-0.9-17.7-3.5-46.3-6.2-53.4
			C383.2,265.8,386,265.1,388.1,265.1z"/>
	</g>
	<g>
		<path class="st12" d="M403.8,320.6c3.8-8,13.6-12.4,17.7-12.4c4.1,0,6.5,3.8,5.3,6.2c-1.2,2.4-3.8,3-6.8,1.8
			C417.1,315,407.3,317,403.8,320.6z"/>
		<path class="st8" d="M397.3,320.8c0.3-7.4,8-24.8,21-29.8c6.2-3,10.9,5,3.5,7.7C415.4,300.9,405.2,306.3,397.3,320.8z"/>
		<path class="st6" d="M392.7,319.5c-1.8-8.6,3.8-33.9,13.3-44.3c3.2-4.1,11.8,1.8,6.5,7.1C407.2,287.6,394.8,304.5,392.7,319.5z"/>
		<path d="M388.5,265.1c-1.6,0-5,0.7-6.2,3.2c2.7,7.1,5.3,35.7,6.2,53.4c0.9-17.7,3.5-46.3,6.2-53.4
			C393.4,265.8,390.6,265.1,388.5,265.1z"/>
	</g>
</g>
<g>
	<g>
		<path class="st28" d="M148.8,378.4c0-4.5,2.3-8.1,5.1-8.1c2.8,0,5.1,3.6,5.1,8.1c0,4.5-2.3,8.1-5.1,8.1
			C151.1,386.6,148.8,382.9,148.8,378.4L148.8,378.4z M161.4,373.9c0-8.3-3.4-15-7.5-15c-4.1,0-7.5,6.7-7.5,15c0,8.3,3.3,15,7.5,15
			C158,388.9,161.4,382.2,161.4,373.9z"/>
		<circle class="st28" cx="153.9" cy="381.5" r="2.9"/>
		<path d="M151,381.5c0-1.6,1.3-2.9,2.9-2.9c1.6,0,2.9,1.3,2.9,2.9c0,1.6-1.3,2.9-2.9,2.9C152.3,384.3,151,383,151,381.5L151,381.5z
			 M153.9,370.3c-2.8,0-5.1,3.6-5.1,8.1c0,4.5,2.3,8.1,5.1,8.1c2.8,0,5.1-3.6,5.1-8.1C159,373.9,156.7,370.3,153.9,370.3z"/>
	</g>
	<g>
		<path class="st28" d="M135.2,392.2c-3.9-2.2-5.9-6-4.5-8.5c1.4-2.4,5.7-2.6,9.6-0.3c3.9,2.2,5.9,6,4.5,8.5
			C143.4,394.3,139.1,394.4,135.2,392.2L135.2,392.2z M137.5,379.1c-7.2-4.2-14.7-4.6-16.8-1c-2.1,3.6,2.1,9.8,9.3,14
			c7.2,4.1,14.7,4.6,16.8,1C148.9,389.5,144.7,383.2,137.5,379.1z"/>
		<circle class="st28" cx="140.4" cy="389.3" r="2.9"/>
		<path d="M138.9,391.8c-1.4-0.8-1.8-2.6-1.1-3.9c0.8-1.4,2.6-1.8,3.9-1.1c1.4,0.8,1.8,2.6,1.1,3.9
			C142.1,392.1,140.3,392.6,138.9,391.8L138.9,391.8z M130.7,383.7c-1.4,2.4,0.6,6.2,4.5,8.5c3.9,2.2,8.2,2.1,9.6-0.3
			c1.4-2.4-0.6-6.2-4.5-8.5C136.4,381.1,132.1,381.3,130.7,383.7z"/>
	</g>
	<g>
		<path class="st28" d="M140.3,410.9c-3.9,2.2-8.2,2.1-9.6-0.3c-1.4-2.4,0.6-6.2,4.5-8.5c3.9-2.2,8.2-2.1,9.6,0.3
			C146.2,404.8,144.2,408.6,140.3,410.9L140.3,410.9z M130.1,402.3c-7.2,4.1-11.3,10.4-9.3,14c2.1,3.6,9.6,3.1,16.8-1
			c7.2-4.1,11.3-10.4,9.3-14C144.8,397.7,137.3,398.1,130.1,402.3z"/>
		<circle class="st28" cx="140.4" cy="405" r="2.9"/>
		<path d="M141.8,407.4c-1.4,0.8-3.1,0.3-3.9-1.1c-0.8-1.4-0.3-3.1,1.1-3.9c1.4-0.8,3.1-0.3,3.9,1.1
			C143.7,404.9,143.2,406.7,141.8,407.4L141.8,407.4z M130.7,410.5c1.4,2.4,5.7,2.6,9.6,0.3c3.9-2.2,5.9-6,4.5-8.5
			c-1.4-2.4-5.7-2.6-9.6-0.3C131.3,404.3,129.3,408.1,130.7,410.5z"/>
	</g>
	<g>
		<path class="st28" d="M159.1,415.8c0,4.5-2.3,8.1-5.1,8.1c-2.8,0-5.1-3.6-5.1-8.1c0-4.5,2.3-8.1,5.1-8.1
			C156.8,407.7,159.1,411.3,159.1,415.8L159.1,415.8z M146.5,420.3c0,8.3,3.4,15,7.5,15s7.5-6.7,7.5-15c0-8.3-3.4-15-7.5-15
			S146.5,412,146.5,420.3z"/>
		<circle class="st28" cx="154" cy="412.8" r="2.9"/>
		<path d="M156.8,412.8c0,1.6-1.3,2.9-2.9,2.9c-1.6,0-2.9-1.3-2.9-2.9c0-1.6,1.3-2.9,2.9-2.9C155.6,409.9,156.8,411.2,156.8,412.8
			L156.8,412.8z M154,423.9c2.8,0,5.1-3.6,5.1-8.1c0-4.5-2.3-8.1-5.1-8.1c-2.8,0-5.1,3.6-5.1,8.1C148.9,420.3,151.2,423.9,154,423.9
			z"/>
	</g>
	<g>
		<path class="st28" d="M172.7,402c3.9,2.2,5.9,6,4.5,8.5c-1.4,2.4-5.7,2.6-9.6,0.3c-3.9-2.2-5.9-6-4.5-8.5
			C164.5,399.9,168.8,399.8,172.7,402L172.7,402z M170.3,415.2c7.2,4.2,14.7,4.6,16.8,1c2.1-3.6-2.1-9.8-9.3-14
			c-7.2-4.2-14.7-4.6-16.8-1C159,404.7,163.1,411,170.3,415.2z"/>
		<circle class="st28" cx="167.5" cy="404.9" r="2.9"/>
		<path d="M168.9,402.4c1.4,0.8,1.8,2.6,1.1,3.9c-0.8,1.4-2.6,1.8-3.9,1.1c-1.4-0.8-1.8-2.6-1.1-3.9
			C165.8,402.1,167.6,401.6,168.9,402.4L168.9,402.4z M177.2,410.5c1.4-2.4-0.6-6.2-4.5-8.5c-3.9-2.2-8.2-2.1-9.6,0.3
			c-1.4,2.4,0.6,6.2,4.5,8.5C171.5,413.1,175.8,412.9,177.2,410.5z"/>
	</g>
	<g>
		<path class="st28" d="M167.5,383.3c3.9-2.2,8.2-2.1,9.6,0.3c1.4,2.4-0.6,6.2-4.5,8.5c-3.9,2.2-8.2,2.1-9.6-0.3
			C161.6,389.4,163.7,385.6,167.5,383.3L167.5,383.3z M177.8,391.9c7.2-4.2,11.3-10.4,9.3-14c-2.1-3.6-9.6-3.1-16.8,1
			s-11.3,10.4-9.3,14C163.1,396.6,170.6,396.1,177.8,391.9z"/>
		<circle class="st28" cx="167.5" cy="389.3" r="2.9"/>
		<path d="M166,386.8c1.4-0.8,3.1-0.3,3.9,1.1c0.8,1.4,0.3,3.1-1.1,3.9c-1.4,0.8-3.1,0.3-3.9-1.1S164.7,387.6,166,386.8L166,386.8z
			 M177.1,383.7c-1.4-2.4-5.7-2.6-9.6-0.3c-3.9,2.2-5.9,6-4.5,8.5c1.4,2.4,5.7,2.6,9.6,0.3C176.5,389.9,178.5,386.1,177.1,383.7z"/>
	</g>
</g>
<path d="M275.2,378.6c-6.3-1.7-12.4-2-17.9-1.1c7-3.2,16.5-3.9,26.1-1.3c5.1,1.4,9.8,3.5,13.6,6.2c-0.4-4.2-2-7.9-4.9-10.8
	c-8.8-8.8-26.3-5.7-39,7c-4.6,4.6-7.9,9.8-9.9,15c0.7-7.7,4.8-16.2,11.9-23.3c3.8-3.8,7.9-6.7,12.2-8.7c-3.9-1.7-7.9-2.2-11.8-1.2
	c-12.1,3.2-18.1,19.9-13.4,37.3c1.7,6.3,4.5,11.8,8,16.1c-6.3-4.5-11.6-12.3-14.2-22c-1.4-5.1-1.8-10.2-1.4-14.9
	c-3.4,2.5-5.9,5.7-6.9,9.6c-3.2,12.1,8.2,25.6,25.6,30.2c6.3,1.7,12.4,2,17.9,1.1c-7,3.2-16.5,3.9-26.1,1.3
	c-5.1-1.4-9.8-3.5-13.6-6.2c0.4,4.2,2,7.9,4.9,10.8c8.8,8.8,26.3,5.7,39-7c4.6-4.6,7.9-9.8,9.9-15c-0.7,7.7-4.9,16.2-11.9,23.3
	c-3.8,3.8-7.9,6.7-12.2,8.7c3.9,1.7,7.9,2.2,11.8,1.2c12.1-3.2,18.1-19.9,13.4-37.3c-1.7-6.3-4.5-11.7-8-16.1
	c6.3,4.5,11.6,12.3,14.2,22c1.4,5.1,1.8,10.2,1.4,14.9c3.4-2.5,5.9-5.7,6.9-9.6C304,396.8,292.5,383.2,275.2,378.6z"/>
<g>
	<path class="st28" d="M528.7,295c0-18.2-14.7-32.9-32.9-32.9S463,276.9,463,295s14.7,32.9,32.9,32.9
		C514,327.9,528.7,313.2,528.7,295z"/>
	<path class="st29" d="M469.6,275.7c2.2,0.2,2.2,0.2,7.5,2.1c0.7,0.3,0.7,1.3,0.1,2.3c-0.6,1-1.7,1.5-2.4,1.2
		c-4.9-2.5-4.9-2.5-6.7-3.3c-0.1,0,0.2-0.5,0.6-1.1C469.1,276.2,469.5,275.7,469.6,275.7z"/>
	<path class="st29" d="M481.8,274.4c0.3,0.7-0.2,1.8-1.2,2.4c-1,0.6-2,0.6-2.3-0.1c-1.9-5.4-1.9-5.4-2-7.6c0-0.1,0.5-0.5,1.1-0.9
		c0.6-0.4,1.1-0.7,1.1-0.6C479.3,269.4,479.3,269.4,481.8,274.4z"/>
	<path class="st29" d="M474.3,282.8c0.9-0.2,1.5,0.6,1.3,1.7c-0.1,1.1-1,2.2-1.9,2.3c-6.8,1.4-6.8,1.4-9.7,2.8
		c-0.1,0.1-0.1-0.4,0-1.1c0.1-0.7,0.4-1.4,0.5-1.6C467.5,284.9,467.5,284.9,474.3,282.8z"/>
	<path class="st29" d="M475.3,292.1c-7.1,6.3-7.1,6.3-10.1,10.4c-0.1,0.3-0.4-0.1-0.6-0.9c-0.2-0.8-0.3-1.6-0.2-2
		c2.8-4.6,2.8-4.6,9.5-11.2c0.8-0.7,1.8-0.4,2.2,0.6C476.5,290,476.2,291.4,475.3,292.1z"/>
	<path class="st29" d="M479.6,295.7c-4.7,11-4.7,11-6.6,18.4c-0.1,0.5-0.6,0.3-1.3-0.3c-0.6-0.6-1.1-1.5-1.1-2
		c1.4-7.5,1.4-7.5,5.6-18.4c0.5-1.1,1.7-1.5,2.6-0.9C479.8,293.1,480.2,294.6,479.6,295.7z"/>
	<path class="st29" d="M485.8,296.3c0.6,14,0.6,14,2,23.9c0.2,0.7-0.6,1.1-1.6,0.9c-1-0.2-1.9-0.8-2.1-1.5
		c-1.9-9.7-1.9-9.7-2.8-23.3c0-1.3,1-2.4,2.2-2.5C484.7,293.8,485.8,294.9,485.8,296.3z"/>
	<path class="st29" d="M505.6,316.1c0.4,0.7-0.1,1.7-1.1,2.2c-1,0.5-2.2,0.4-2.7-0.3c-6.5-9.5-6.5-9.5-14.1-22.2
		c-0.7-1.2-0.3-2.8,0.9-3.5c1.2-0.7,2.7-0.3,3.4,0.9C499.5,306.2,499.5,306.2,505.6,316.1z"/>
	<path class="st29" d="M496,287.5c12.7,7.6,12.7,7.6,22.4,14c0.7,0.5,0.8,1.7,0.2,2.7c-0.5,1-1.5,1.5-2.2,1.1c-10-6-10-6-23-13.5
		c-1.2-0.7-1.6-2.2-0.9-3.4C493.3,287.3,494.8,286.9,496,287.5z"/>
	<path class="st29" d="M496.6,281c13.7,0.8,13.7,0.8,23.7,2.6c0.7,0.2,1.3,1.1,1.5,2.2c0.1,1-0.3,1.8-0.9,1.6
		c-10.1-1.2-10.1-1.2-24.2-1.8c-1.4,0-2.5-1.1-2.5-2.3C494.1,282.1,495.2,281,496.6,281z"/>
	<path class="st29" d="M490.2,263.3c-1.4,3-1.4,3-2.9,10c-0.1,0.9-1.2,1.8-2.3,1.9c-1.1,0.2-1.9-0.5-1.7-1.3c2.1-7,2.1-7,4.1-10
		c0.2-0.2,0.9-0.4,1.6-0.5C489.8,263.2,490.3,263.2,490.2,263.3z"/>
	<path class="st29" d="M503.1,264.5c-4.2,3.2-4.2,3.2-10.5,10.5c-0.7,0.9-2.1,1.3-3.1,0.8c-1-0.4-1.2-1.4-0.6-2.3
		c6.6-6.8,6.6-6.8,11.3-9.8c0.3-0.1,1.2-0.1,2,0.1C503,264,503.4,264.3,503.1,264.5z"/>
	<path d="M484.5,278.3c3.1-0.3,5.6,1.9,5.5,5.1c-0.1,3.4-3,6.3-6.3,6.4c-3.1,0.1-5.3-2.4-5-5.5C479,281.2,481.6,278.6,484.5,278.3z"
		/>
	<path class="st29" d="M493.8,276c11-4.4,11-4.4,18.7-5.9c0.5,0,1.4,0.5,2,1.1c0.6,0.7,0.7,1.2,0.2,1.3c-7.5,2.1-7.5,2.1-18.7,6.9
		c-1.1,0.6-2.6,0.3-3.2-0.7C492.3,277.7,492.7,276.5,493.8,276z"/>
</g>
<g>
	<path class="st28" d="M384.7,374.6v8.8H395c5.3,0,9.7,4.3,9.7,9.7v10.3h8.8v-15.9c0-7-5.8-12.8-12.8-12.8L384.7,374.6L384.7,374.6z
		"/>
	<path class="st28" d="M368.4,429.3c-5.3,0-9.7-4.3-9.7-9.7v-10.3h-8.8v15.9c0,7,5.8,12.8,12.8,12.8h15.9v-8.8L368.4,429.3
		L368.4,429.3z"/>
	<path class="st28" d="M384.7,438.1v6.5h19.8c8.5,0,15.4-6.9,15.4-15.4v-19.8h-6.5h-8.8v10.3c0,5.3-4.3,9.7-9.7,9.7h-10.3
		L384.7,438.1L384.7,438.1z"/>
	<path d="M372.4,390.3H391c3.7,0,6.8,3,6.8,6.8v18.6c0,3.7-3,6.8-6.8,6.8h-18.6c-3.7,0-6.8-3-6.8-6.8v-18.6
		C365.6,393.3,368.6,390.3,372.4,390.3z"/>
	<path class="st28" d="M349.9,403.3h8.8v-10.3c0-5.3,4.3-9.7,9.7-9.7h10.3v-8.8v-6.5h-19.8c-8.5,0-15.4,6.9-15.4,15.4v19.8
		L349.9,403.3L349.9,403.3z"/>
</g>
<g>
	<path d="M492.2,382.6c6.4,0,11.6,5.2,11.6,11.6c0,6.4-5.2,11.6-11.6,11.6s-11.6-5.2-11.6-11.6C480.6,387.8,485.8,382.6,492.2,382.6
		L492.2,382.6z M492.2,387.8c-3.5,0-6.4,2.9-6.4,6.4c0,3.5,2.9,6.4,6.4,6.4s6.4-2.9,6.4-6.4C498.6,390.7,495.7,387.8,492.2,387.8z"
		/>
	<path class="st30" d="M492.3,379c-2.3,0-4.1-1.8-4.1-4.1c0-2.3,1.8-4.1,4.1-4.1c2.3,0,4.1,1.8,4.1,4.1
		C496.4,377.2,494.6,379,492.3,379z"/>
	<g>
		<circle class="st30" cx="492.4" cy="366.3" r="3"/>
		<circle class="st30" cx="492.4" cy="359.7" r="1.9"/>
	</g>
	<circle class="st30" cx="492.5" cy="354.3" r="0.9"/>
	<path class="st30" d="M484.7,381c-2,1.1-4.5,0.5-5.6-1.5c-1.1-2-0.5-4.5,1.5-5.6c2-1.1,4.5-0.5,5.6,1.5
		C487.3,377.3,486.7,379.9,484.7,381z"/>
	<g>
		<circle class="st30" cx="478.4" cy="369.9" r="3"/>
		<circle class="st30" cx="475.1" cy="364.2" r="1.9"/>
	</g>
	<path class="st30" d="M472.9,360.3c-0.4,0.2-0.9,0.1-1.2-0.3c-0.2-0.4-0.1-0.9,0.3-1.2c0.4-0.2,0.9-0.1,1.2,0.3
		C473.5,359.5,473.3,360,472.9,360.3z"/>
	<circle class="st30" cx="475.5" cy="384.5" r="4.1"/>
	<g>
		<circle class="st30" cx="468.1" cy="380.1" r="3"/>
		<path class="st30" d="M464.1,377.7c-0.5,0.9-1.7,1.3-2.7,0.7c-0.9-0.5-1.3-1.7-0.7-2.7c0.5-0.9,1.7-1.3,2.7-0.7
			C464.3,375.6,464.6,376.8,464.1,377.7z"/>
	</g>
	<path class="st30" d="M458.5,374.5c-0.2,0.4-0.8,0.6-1.2,0.3c-0.4-0.2-0.5-0.8-0.3-1.2c0.2-0.4,0.8-0.6,1.2-0.3
		C458.6,373.5,458.8,374.1,458.5,374.5z"/>
	<path class="st30" d="M477,394.1c0,2.3-1.9,4.1-4.1,4.1c-2.3,0-4.1-1.8-4.1-4.1c0-2.3,1.8-4.1,4.1-4.1
		C475.1,390,477,391.8,477,394.1z"/>
	<g>
		<path class="st30" d="M467.3,394.1c0,1.7-1.4,3-3,3c-1.7,0-3-1.4-3-3c0-1.7,1.4-3,3-3C465.9,391,467.3,392.4,467.3,394.1z"/>
		<circle class="st30" cx="457.6" cy="394" r="1.9"/>
	</g>
	<circle class="st30" cx="452.3" cy="394" r="0.9"/>
	<circle class="st30" cx="475.4" cy="403.8" r="4.1"/>
	<g>
		<circle class="st30" cx="467.9" cy="408.1" r="3"/>
		<path class="st30" d="M463.8,410.3c0.5,0.9,0.2,2.1-0.7,2.7c-0.9,0.5-2.1,0.2-2.7-0.7c-0.5-0.9-0.2-2.1,0.7-2.7
			C462.1,409.1,463.3,409.4,463.8,410.3z"/>
	</g>
	<circle class="st30" cx="457.5" cy="413.9" r="0.9"/>
	<path class="st30" d="M484.5,407.4c2,1.1,2.6,3.7,1.5,5.6c-1.1,2-3.7,2.7-5.6,1.5c-2-1.1-2.7-3.7-1.5-5.6
		C480,406.9,482.5,406.2,484.5,407.4z"/>
	<g>
		<circle class="st30" cx="478.1" cy="418.3" r="3"/>
		<circle class="st30" cx="474.7" cy="424" r="1.9"/>
	</g>
	<circle class="st30" cx="472" cy="428.7" r="0.9"/>
	<circle class="st30" cx="492.1" cy="413.6" r="4.1"/>
	<g>
		<circle class="st30" cx="492" cy="422.2" r="3"/>
		<circle class="st30" cx="492" cy="428.8" r="1.9"/>
	</g>
	<circle class="st30" cx="491.9" cy="434.1" r="0.9"/>
	<circle class="st30" cx="501.8" cy="411" r="4.1"/>
	<g>
		<path class="st30" d="M504.5,415.9c1.5-0.8,3.3-0.3,4.1,1.1c0.8,1.5,0.3,3.3-1.1,4.2c-1.5,0.8-3.3,0.3-4.1-1.1
			C502.5,418.6,503,416.7,504.5,415.9z"/>
		<path class="st30" d="M508.3,422.6c0.9-0.5,2.1-0.2,2.7,0.7c0.5,0.9,0.2,2.1-0.7,2.7c-0.9,0.5-2.1,0.2-2.7-0.7
			C507,424.3,507.4,423.1,508.3,422.6z"/>
	</g>
	<circle class="st30" cx="511.9" cy="428.9" r="0.9"/>
	<circle class="st30" cx="508.9" cy="404" r="4.1"/>
	<g>
		<path class="st30" d="M513.7,406.8c0.8-1.5,2.7-1.9,4.1-1.1c1.5,0.8,2,2.7,1.1,4.2c-0.8,1.5-2.7,1.9-4.2,1.1
			C513.3,410.2,512.8,408.3,513.7,406.8z"/>
		<circle class="st30" cx="522" cy="411.7" r="1.9"/>
	</g>
	<path class="st30" d="M525.9,414c0.2-0.4,0.8-0.6,1.2-0.3c0.4,0.2,0.5,0.8,0.3,1.2c-0.2,0.4-0.8,0.5-1.2,0.3S525.6,414.4,525.9,414
		z"/>
	<path class="st30" d="M507.4,394.3c0-2.3,1.9-4.1,4.1-4.1c2.3,0,4.1,1.8,4.1,4.1s-1.8,4.1-4.1,4.1
		C509.3,398.5,507.4,396.6,507.4,394.3z"/>
	<g>
		<path class="st30" d="M517.1,394.4c0-1.7,1.4-3,3-3c1.7,0,3,1.4,3,3s-1.4,3-3,3C518.5,397.5,517.1,396.1,517.1,394.4z"/>
		<circle class="st30" cx="526.8" cy="394.5" r="1.9"/>
	</g>
	<circle class="st30" cx="532.1" cy="394.5" r="0.9"/>
	<circle class="st30" cx="509" cy="384.7" r="4.1"/>
	<g>
		<path class="st30" d="M513.9,381.9c-0.8-1.5-0.3-3.3,1.1-4.1c1.5-0.8,3.3-0.3,4.1,1.1c0.8,1.5,0.3,3.3-1.1,4.2
			C516.6,383.9,514.7,383.4,513.9,381.9z"/>
		<path class="st30" d="M520.6,378.1c-0.5-0.9-0.2-2.1,0.7-2.7c0.9-0.5,2.1-0.2,2.7,0.7c0.5,0.9,0.2,2.1-0.7,2.7
			C522.3,379.4,521.1,379.1,520.6,378.1z"/>
	</g>
	<path class="st30" d="M526.2,375c-0.2-0.4-0.1-0.9,0.3-1.2c0.4-0.2,0.9-0.1,1.2,0.3c0.2,0.4,0.1,0.9-0.3,1.2
		C526.9,375.5,526.4,375.4,526.2,375z"/>
	<path class="st30" d="M499.9,381.1c-2-1.1-2.6-3.7-1.5-5.6c1.1-2,3.7-2.6,5.6-1.5c2,1.1,2.7,3.7,1.5,5.6
		C504.4,381.6,501.9,382.3,499.9,381.1z"/>
	<g>
		<circle class="st30" cx="506.3" cy="370.1" r="3"/>
		<circle class="st30" cx="509.7" cy="364.4" r="1.9"/>
	</g>
	<circle class="st30" cx="512.4" cy="359.8" r="0.9"/>
</g>
<g>
	<path class="st28" d="M21,363.8c9.7,0,17.6,7.9,17.6,17.6c0,9.7-7.9,17.6-17.6,17.6s-17.6-7.9-17.6-17.6
		C3.4,371.7,11.3,363.8,21,363.8L21,363.8z M21,372c-5.2,0-9.4,4.2-9.4,9.4c0,5.2,4.2,9.4,9.4,9.4s9.4-4.2,9.4-9.4
		C30.4,376.2,26.2,372,21,372z"/>
	<circle cx="21" cy="381.4" r="6.2"/>
	<path class="st28" d="M55.8,363.8c9.7,0,17.6,7.9,17.6,17.6c0,9.7-7.9,17.6-17.6,17.6s-17.6-7.9-17.6-17.6
		C38.2,371.7,46.1,363.8,55.8,363.8L55.8,363.8z M55.8,372c-5.2,0-9.4,4.2-9.4,9.4c0,5.2,4.2,9.4,9.4,9.4c5.2,0,9.4-4.2,9.4-9.4
		C65.2,376.2,61,372,55.8,372z"/>
	<circle cx="55.8" cy="381.4" r="6.2"/>
	<path class="st28" d="M21,398.7c9.7,0,17.6,7.9,17.6,17.6c0,9.7-7.9,17.6-17.6,17.6S3.4,426,3.4,416.3
		C3.4,406.6,11.3,398.7,21,398.7L21,398.7z M21,406.9c-5.2,0-9.4,4.2-9.4,9.4c0,5.2,4.2,9.4,9.4,9.4s9.4-4.2,9.4-9.4
		C30.4,411.1,26.2,406.9,21,406.9z"/>
	<ellipse transform="matrix(0.9999 -1.219241e-02 1.219241e-02 0.9999 -5.0739 0.287)" cx="21" cy="416.3" rx="6.2" ry="6.2"/>
	<path class="st28" d="M55.8,398.7c9.7,0,17.6,7.9,17.6,17.6c0,9.7-7.9,17.6-17.6,17.6s-17.6-7.9-17.6-17.6
		C38.2,406.6,46.1,398.7,55.8,398.7L55.8,398.7z M55.8,406.9c-5.2,0-9.4,4.2-9.4,9.4c0,5.2,4.2,9.4,9.4,9.4c5.2,0,9.4-4.2,9.4-9.4
		C65.2,411.1,61,406.9,55.8,406.9z"/>
	<circle cx="55.8" cy="416.3" r="6.2"/>
	<path d="M44.9,398.8c-2.6-1.6-4.9-3.9-6.5-6.5c-1.7,2.6-3.9,4.8-6.5,6.5c2.6,1.6,4.9,3.9,6.5,6.5C40.1,402.7,42.3,400.5,44.9,398.8
		z"/>
</g>
<g>
	<path class="st31" d="M13,2c1.9-0.3,4.2-0.5,6.7-0.5c4.5,0,7.7,1,9.8,3c2.2,2,3.4,4.8,3.4,8.7c0,4-1.2,7.2-3.5,9.4
		c-2.3,2.3-6,3.5-10.7,3.5c-2.2,0-4.1-0.1-5.7-0.3L13,2L13,2z M16.1,23.5c0.8,0.1,1.9,0.2,3.2,0.2c6.7,0,10.3-3.7,10.3-10.3
		c0-5.7-3.2-9.4-9.8-9.4c-1.6,0-2.8,0.1-3.7,0.3C16.1,4.3,16.1,23.5,16.1,23.5z"/>
	<path class="st31" d="M49.1,21.8c0,1.5,0.1,3,0.3,4.2h-2.9l-0.3-2.2h-0.1c-1,1.4-2.8,2.6-5.3,2.6c-3.5,0-5.3-2.5-5.3-5
		c0-4.2,3.7-6.5,10.5-6.5v-0.4c0-1.4-0.4-4-4-4c-1.6,0-3.3,0.5-4.5,1.3l-0.7-2.1c1.4-0.9,3.5-1.5,5.7-1.5c5.3,0,6.6,3.6,6.6,7.1
		L49.1,21.8L49.1,21.8z M46,17.1c-3.5-0.1-7.4,0.5-7.4,3.9c0,2.1,1.4,3,3,3c2.3,0,3.7-1.4,4.2-2.9c0.1-0.3,0.2-0.7,0.2-1
		C46,20.1,46,17.1,46,17.1z"/>
	<path class="st31" d="M54.5,26v-15h-2.4V8.5h2.4V7.7c0-2.4,0.5-4.7,2-6.1C57.7,0.5,59.3,0,60.8,0c1.1,0,2.1,0.3,2.7,0.5L63,3
		c-0.5-0.2-1.1-0.4-2-0.4c-2.7,0-3.4,2.4-3.4,5v0.9h4.2v2.4h-4.2v15H54.5z"/>
	<path class="st31" d="M68.9,4.4v4.2h4.5v2.4h-4.5v9.4c0,2.2,0.6,3.4,2.4,3.4c0.9,0,1.4-0.1,1.8-0.2l0.1,2.4
		c-0.6,0.3-1.6,0.5-2.8,0.5c-1.5,0-2.7-0.5-3.4-1.4c-0.9-0.9-1.2-2.5-1.2-4.5v-9.5h-2.7V8.5h2.7V5.3L68.9,4.4z"/>
	<path class="st31" d="M89.2,21.8c0,1.5,0.1,3,0.3,4.2h-2.9l-0.3-2.2h-0.1c-1,1.4-2.8,2.6-5.3,2.6c-3.5,0-5.3-2.5-5.3-5
		c0-4.2,3.7-6.5,10.5-6.5v-0.4c0-1.4-0.4-4-4-4c-1.6,0-3.3,0.5-4.5,1.3l-0.7-2.1c1.4-0.9,3.5-1.5,5.7-1.5c5.3,0,6.6,3.6,6.6,7.1
		L89.2,21.8L89.2,21.8z M86.2,17.1c-3.5-0.1-7.4,0.5-7.4,3.9c0,2.1,1.4,3,3,3c2.3,0,3.7-1.4,4.2-2.9c0.1-0.3,0.2-0.7,0.2-1V17.1z"/>
	<path class="st31" d="M94.4,14c0-2.1,0-3.8-0.1-5.4H97l0.1,3.4h0.1c0.8-2.3,2.7-3.8,4.8-3.8c0.4,0,0.6,0,0.9,0.1v3
		c-0.3-0.1-0.6-0.1-1.1-0.1c-2.2,0-3.8,1.7-4.2,4.1c-0.1,0.4-0.1,0.9-0.1,1.5V26h-3.1L94.4,14L94.4,14z"/>
	<path class="st31" d="M113.8,14.2c0-2.2-0.1-4-0.1-5.7h2.8l0.1,3h0.1c1.3-2.1,3.3-3.4,6.2-3.4c4.2,0,7.4,3.6,7.4,8.9
		c0,6.3-3.8,9.4-7.9,9.4c-2.3,0-4.3-1-5.4-2.7h-0.1v9.5h-3.1L113.8,14.2L113.8,14.2z M116.9,18.9c0,0.5,0.1,0.9,0.1,1.3
		c0.6,2.2,2.5,3.7,4.8,3.7c3.3,0,5.3-2.7,5.3-6.7c0-3.5-1.8-6.5-5.2-6.5c-2.2,0-4.2,1.5-4.8,3.9c-0.1,0.4-0.2,0.9-0.2,1.3
		L116.9,18.9L116.9,18.9z"/>
	<path class="st31" d="M137.8,3.6c0,1.1-0.8,1.9-2,1.9c-1.1,0-1.9-0.9-1.9-1.9c0-1.1,0.8-2,2-2C137,1.7,137.8,2.5,137.8,3.6z
		 M134.2,26V8.5h3.2V26C137.4,26,134.2,26,134.2,26z"/>
	<path class="st31" d="M142.7,0.4h3.2V26h-3.2V0.4z"/>
	<path class="st31" d="M154.7,3.6c0,1.1-0.8,1.9-2,1.9c-1.1,0-1.9-0.9-1.9-1.9c0-1.1,0.8-2,2-2C153.9,1.7,154.7,2.5,154.7,3.6z
		 M151.2,26V8.5h3.2V26C154.3,26,151.2,26,151.2,26z"/>
	<path class="st31" d="M159.6,0.4h3.2v10.9h0.1c0.5-0.9,1.3-1.7,2.3-2.2c0.9-0.5,2.1-0.9,3.2-0.9c2.3,0,6.1,1.4,6.1,7.5V26h-3.2v-10
		c0-2.8-1-5.2-4-5.2c-2.1,0-3.7,1.4-4.2,3.2c-0.2,0.4-0.2,0.9-0.2,1.5V26h-3.2L159.6,0.4L159.6,0.4z"/>
	<path class="st31" d="M191.8,21.8c0,1.5,0.1,3,0.3,4.2h-2.9l-0.3-2.2h-0.1c-1,1.4-2.8,2.6-5.3,2.6c-3.5,0-5.3-2.5-5.3-5
		c0-4.2,3.7-6.5,10.5-6.5v-0.4c0-1.4-0.4-4-4-4c-1.6,0-3.3,0.5-4.5,1.3l-0.7-2.1c1.4-0.9,3.5-1.5,5.7-1.5c5.3,0,6.6,3.6,6.6,7.1
		L191.8,21.8L191.8,21.8z M188.7,17.1c-3.5-0.1-7.4,0.5-7.4,3.9c0,2.1,1.4,3,3,3c2.3,0,3.7-1.4,4.2-2.9c0.1-0.3,0.2-0.7,0.2-1V17.1z
		"/>
	<path class="st31" d="M196.9,13.2c0-1.8,0-3.3-0.1-4.7h2.8l0.2,2.9h0.1c0.9-1.7,2.9-3.3,5.8-3.3c2.4,0,6.2,1.4,6.2,7.4V26h-3.2v-10
		c0-2.8-1-5.1-4-5.1c-2.1,0-3.7,1.5-4.2,3.2c-0.1,0.4-0.2,0.9-0.2,1.5V26h-3.2L196.9,13.2L196.9,13.2z"/>
	<path class="st31" d="M226.3,17.8c0.1,4.3,2.8,6,6,6c2.3,0,3.6-0.4,4.8-0.9l0.5,2.3c-1.1,0.5-3,1.1-5.8,1.1c-5.4,0-8.6-3.6-8.6-8.8
		s3.1-9.4,8.2-9.4c5.7,0,7.2,5,7.2,8.2c0,0.6-0.1,1.2-0.1,1.5C238.5,17.8,226.3,17.8,226.3,17.8z M235.6,15.6c0-2-0.8-5.1-4.4-5.1
		c-3.2,0-4.6,3-4.9,5.1C226.3,15.5,235.6,15.5,235.6,15.6z"/>
	<path class="st31" d="M242.6,0.4h3.2V26h-3.2V0.4z"/>
	<path class="st31" d="M252.8,17.8c0.1,4.3,2.8,6,6,6c2.3,0,3.6-0.4,4.8-0.9l0.5,2.3c-1.1,0.5-3,1.1-5.8,1.1c-5.4,0-8.6-3.6-8.6-8.8
		s3.1-9.4,8.2-9.4c5.7,0,7.2,5,7.2,8.2c0,0.6-0.1,1.2-0.1,1.5C265.1,17.8,252.8,17.8,252.8,17.8z M262.1,15.6c0-2-0.8-5.1-4.4-5.1
		c-3.2,0-4.6,3-4.9,5.1C252.9,15.5,262.1,15.5,262.1,15.6z"/>
	<path class="st31" d="M269.1,13.2c0-1.8,0-3.3-0.1-4.7h2.8l0.1,2.8h0.1c1-1.7,2.6-3.2,5.5-3.2c2.4,0,4.2,1.4,4.9,3.5h0.1
		c0.5-1,1.2-1.7,1.9-2.3c1-0.8,2.2-1.2,3.9-1.2c2.3,0,5.7,1.5,5.7,7.6V26h-3.1v-9.9c0-3.3-1.2-5.4-3.8-5.4c-1.8,0-3.2,1.3-3.7,2.9
		c-0.1,0.4-0.3,1-0.3,1.6V26H280V15.5c0-2.8-1.2-4.8-3.6-4.8c-2,0-3.4,1.6-3.9,3.2c-0.2,0.5-0.3,1-0.3,1.5V26h-3.1L269.1,13.2
		L269.1,13.2z"/>
	<path class="st31" d="M300.9,17.8c0.1,4.3,2.8,6,6,6c2.3,0,3.6-0.4,4.8-0.9l0.5,2.3c-1.1,0.5-3,1.1-5.8,1.1c-5.4,0-8.6-3.6-8.6-8.8
		s3.1-9.4,8.2-9.4c5.7,0,7.2,5,7.2,8.2c0,0.6-0.1,1.2-0.1,1.5C313.1,17.8,300.9,17.8,300.9,17.8z M310.2,15.6c0-2-0.8-5.1-4.4-5.1
		c-3.2,0-4.6,3-4.9,5.1C300.9,15.5,310.2,15.5,310.2,15.6z"/>
	<path class="st31" d="M317.2,13.2c0-1.8,0-3.3-0.1-4.7h2.8l0.2,2.9h0.1c0.9-1.7,2.9-3.3,5.8-3.3c2.4,0,6.2,1.4,6.2,7.4V26h-3.2v-10
		c0-2.8-1-5.1-4-5.1c-2.1,0-3.7,1.5-4.2,3.2c-0.1,0.4-0.2,0.9-0.2,1.5V26h-3.2L317.2,13.2L317.2,13.2z"/>
	<path class="st31" d="M344.8,0.4h3.2V26h-3.2V0.4z"/>
	<path class="st31" d="M369,17.1c0,6.4-4.5,9.3-8.7,9.3c-4.7,0-8.4-3.5-8.4-9c0-5.8,3.8-9.3,8.6-9.3C365.6,8.1,369,11.8,369,17.1z
		 M355.2,17.3c0,3.8,2.2,6.7,5.3,6.7c3,0,5.3-2.8,5.3-6.8c0-3-1.5-6.7-5.2-6.7S355.2,14,355.2,17.3z"/>
	<path class="st31" d="M387.9,23.4c0,4-0.8,6.4-2.5,8c-1.7,1.6-4.1,2.1-6.3,2.1c-2.1,0-4.4-0.5-5.8-1.4l0.8-2.4
		c1.2,0.7,3,1.4,5.1,1.4c3.2,0,5.6-1.7,5.6-6.1V23h-0.1c-1,1.6-2.8,2.9-5.5,2.9c-4.3,0-7.4-3.7-7.4-8.5c0-5.9,3.9-9.3,7.8-9.3
		c3,0,4.7,1.6,5.4,3h0.1l0.1-2.6h2.8c-0.1,1.3-0.1,2.7-0.1,4.8L387.9,23.4L387.9,23.4z M384.8,15.4c0-0.5,0-1-0.2-1.4
		c-0.6-1.8-2.1-3.3-4.4-3.3c-3,0-5.2,2.6-5.2,6.6c0,3.4,1.7,6.3,5.1,6.3c1.9,0,3.7-1.2,4.4-3.2c0.2-0.5,0.3-1.2,0.3-1.7L384.8,15.4
		L384.8,15.4z"/>
	<path class="st31" d="M408.9,17.1c0,6.4-4.5,9.3-8.7,9.3c-4.7,0-8.4-3.5-8.4-9c0-5.8,3.8-9.3,8.6-9.3
		C405.5,8.1,408.9,11.8,408.9,17.1z M395.1,17.3c0,3.8,2.2,6.7,5.3,6.7c3,0,5.3-2.8,5.3-6.8c0-3-1.5-6.7-5.2-6.7
		C396.7,10.5,395.1,14,395.1,17.3z"/>
</g>
<g>
	<g>
		<path class="st32" d="M0,61c98-17,199-11,298-11c39,0,89-11,127,0"/>
		<g>
			<g>
				<g>
					<g>
						<path class="st31" d="M415,46.4c1,0.1,1.8,0.4,1.4,0.5c2,0.2,2,0.4,2.3,0.1c1.3,0.1,2.5,0.7,1.1,0.5l3.6,0.7l-2.1-0.6
							c0.7-0.1,3.4,0.9,4.2,0.8l-3.9-0.9l0.2,0c-0.9-0.1-2.6-0.6-3.2-0.8c0.1,0,0.1-0.1,0.8,0c-4.7-1-1.4,0.2-5.3-0.4
							C414.3,46.2,414.6,46.3,415,46.4z"/>
						<path class="st31" d="M411.1,44.9l-1.7,0.1l-2.8-0.4c0,0.1-2.1,0-0.7,0.3c0.3,0,0.8,0,1.2,0.1c-0.3,0.2-3.7-0.3-2.9,0.1
							c2.2,0.2,2.5,0.3,3.9,0.2c2,0.2,3.5,0.6,4.4,0.8c0.6,0.1,0.7-0.1,1.5,0l-0.5-0.1l0-0.4c-0.6,0-1.2-0.2-1.9-0.3l3.3,0.1
							c-1-0.5-4.2-1-5.5-1.2C410.9,44.8,408,44.2,411.1,44.9z"/>
						<path class="st31" d="M414,46.2L414,46.2L414,46.2z"/>
						<path class="st31" d="M170.8,50.1c-0.7,0-0.9,0.1-1,0.2l7.8,0c-0.2-0.1-2.5-0.3-1-0.3c-0.7-0.1-2.7,0-3,0.1l0.6-0.2
							c-1.8,0.2-3-0.2-1.9-0.3l-0.2,0l-5,0.8C169,50.5,168.6,50.2,170.8,50.1z"/>
						<path class="st31" d="M11.4,59.9c1-0.2,1.1-0.3,1-0.3L11.4,59.9z"/>
						<path class="st31" d="M166,50.7l-1.6,0.3C165.1,50.8,165.7,50.8,166,50.7z"/>
						<polygon class="st31" points="176.8,46.6 176.8,46.6 176.1,46.7 176.1,46.7 						"/>
						<path class="st31" d="M130.7,52.1l-0.5,0L130.7,52.1z"/>
						<path class="st31" d="M198,45.2l-3.5,0.2c0.5-0.1-1.2-0.1-0.5-0.2c-0.3,0-1.5,0.1-1.2,0.1l0.7,0c-1.8,0.3-0.7,0.5-3.8,0.7
							c1.9,0.2,2.7,0,3.7-0.1l0.9,0l2.9-0.5L198,45.2z"/>
						<path class="st31" d="M59.1,52.1L59.1,52.1L59.1,52.1z"/>
						<path class="st31" d="M59.2,52l-0.1,0.1C59.3,52,60,51.9,59.2,52z"/>
						<path class="st31" d="M166.6,50.4c0,0.1-0.2,0.1-0.6,0.2l1.2-0.2L166.6,50.4z"/>
						<path class="st31" d="M169.3,49.7l2.9,0l1.1-0.2C172.1,49.5,170.8,49.5,169.3,49.7z"/>
						<path class="st31" d="M135.4,52.2c-6,0.2,1.5-0.4-1.3-0.5c-1.7,0.1-2.3,0.3-3.3,0.4c4.8-0.3-0.6,0.7,4.2,0.5
							c-0.7,0.4-3.5,0.4-5.1,0.4c-1.9-0.3,1.6-0.3,2-0.6c-1.9,0.1-1.6,0.1-2.4,0.4c-3,0-6.3,0.6-8.1,0.2c-2.2,0.1-2,0.3-3.3,0.5
							c-0.2,0.4,3.3,0.1,4.1,0.4c-0.2,0-0.5-0.1-0.4-0.1l1.9,0c-1.8-0.1,0.2-0.4,1.2-0.4c0.7,0,2.1-0.1,1.9,0l-1.1,0.1
							c1.4,0.1,3-0.4,4.5-0.2c0.1,0.1-0.5,0.1-0.5,0.2c1.6-0.3,3.2-0.3,5.6-0.5l-1.4,0.4c1.9-0.4,6.3-0.4,9.3-0.2
							c-0.3-0.1-0.9-0.1-0.6-0.2c1.8-0.1,3.1,0.1,2.3,0.3c1.7-0.3,6.6,0.1,8.9-0.2l10.8-1.9l-1.3,0.1c-1-0.3-1.5-0.3,0.2-0.6
							c-1.7,0.2-1,0.4-3.6,0.5c1-0.2,1.2-0.5-1.2-0.6c-6.1,0.4-10.1,1.3-15.8,1.9c-0.2-0.2-4.7-0.1-6.8-0.1c0.8-0.3,2.4-0.4,4.1-0.5
							c-1,0-2.9,0-4.2,0L135.4,52.2z"/>
						<path class="st31" d="M149.5,51.2l-0.5,0C149.1,51.1,149.2,51.1,149.5,51.2z"/>
						<path class="st31" d="M140.6,51.7L140.6,51.7l-0.5,0C140.3,51.7,140.5,51.7,140.6,51.7z"/>
						<path class="st31" d="M165.2,49.9l1-0.2l-0.8,0.1C165.1,49.8,165,49.8,165.2,49.9z"/>
						<path class="st31" d="M166.4,50.3l-0.2,0.1l0.4,0C166.7,50.4,166.6,50.3,166.4,50.3z"/>
						<path class="st31" d="M112.2,50.7l-0.6,0.1C112,50.7,112.1,50.7,112.2,50.7z"/>
						<path class="st31" d="M128.6,51.9c2.1-0.1,0.2-0.4,3.2-0.4l-0.9,0c2.1-0.2,5.9-0.2,8.4-0.3c-0.3,0.2,1.5,0.1,1.2,0.4
							c1.7-0.1,3.4-0.2,4.3-0.4c1.1,0.1,2.7-0.2,4.1-0.1c-0.6-0.1,1.9-0.5-1.4-0.3c0.3,0,0.1-0.1,0.4-0.1c-2.1-0.2-3,0.2-4.8,0.2
							c-1.1-0.1,1.8-0.3,0.8-0.3c-2.3,0.2-7.2,0-7.1,0.5c-1.7,0.1-1.9,0-2.4-0.1c-2.6,0.6-9.8,0-9.8,0.7c1-0.1,2.5-0.1,4-0.3
							L128.6,51.9z"/>
						<path class="st31" d="M161.7,49.9l-0.4,0L161.7,49.9z"/>
						<path class="st31" d="M188.2,51.9l-0.9,0.4c-5,0.1-6.8,0-11.2,0c-0.3-0.1,0.2-0.1,0.5-0.1c-3.1,0.1-7.7-0.1-9.9,0.2
							c-1,0-3.5-0.1-2.6-0.3c-0.5,0-1,0.1-1.6,0.1c-0.1-0.2,1.2-0.1,1.3-0.2c-0.4,0-0.6,0-0.7,0c0.7-0.1-0.8-0.5,2.6-0.6
							c1.3,0.4-2.4,0.1-1.6,0.5c1.1,0,1-0.2,1.1-0.2c1.4,0,1.4,0.1,1.3,0.2c0.6-0.1,2.4,0,3.1-0.2c2.8,0-0.2,0.3,1.7,0.3l1.1-0.4
							l3,0.1c4.4-0.1-0.6-0.7,4.4-1c-0.7,0.2,1.4,0.6,3.7,0.7c-1.4,0-4,0.3-5.8,0.2c2.5,0.3-3.5,0-2.2,0.4c1.3-0.2,3.4-0.2,5-0.1
							l-0.5,0c1.7,0,3.1-0.4,5.5-0.2c1.2,0,1,0.1,0.8,0.2C187.3,51.9,188.2,51.8,188.2,51.9z M185.6,52l-1.6,0
							C184.3,52,184.9,52,185.6,52z"/>
						<path class="st31" d="M388.5,43.2l0.5,0C388.9,43.2,388.7,43.2,388.5,43.2z"/>
						<path class="st31" d="M246.7,47.5l0.9,0C247.3,47.5,247,47.5,246.7,47.5z"/>
						<path class="st31" d="M267.5,46.3l1.4-0.1C268.3,46.2,267.9,46.2,267.5,46.3z"/>
						<polygon class="st31" points="377.4,43.2 377.4,43.2 377.2,43.2 						"/>
						<path class="st31" d="M309.1,47.2c0.2,0,0.4,0,0.8,0.1C309.8,47.2,309.5,47.2,309.1,47.2z"/>
						<polygon class="st31" points="267.3,46.3 267.3,46.3 267.5,46.3 						"/>
						<path class="st31" d="M237.6,46.1l-0.6,0C237.2,46.1,237.4,46.1,237.6,46.1z"/>
						<path class="st31" d="M238.8,47.3l-0.6,0L238.8,47.3z"/>
						<path class="st31" d="M206.8,46.1l-1.2,0C206.2,46.2,206.5,46.2,206.8,46.1z"/>
						<path class="st31" d="M235.5,47l-0.2,0.1C235.5,47.1,235.6,47,235.5,47z"/>
						<polygon class="st31" points="396.5,44.8 396.4,44.8 396.4,44.8 						"/>
						<path class="st31" d="M399.6,44.4l1.1,0C400.2,44.4,399.8,44.4,399.6,44.4z"/>
						<path class="st31" d="M327.1,46.7c0.3,0,1.1,0.1,0.8,0.1C328.5,46.7,328.4,46.5,327.1,46.7z"/>
						<path class="st31" d="M390.3,47.2L391,47C390.5,47.1,390.1,47.1,390.3,47.2z"/>
						<path class="st31" d="M391,47l0.7-0.1L391,47z"/>
						<path class="st31" d="M319,50.8c-0.1,0-0.2,0-0.4,0C318.7,50.8,318.8,50.8,319,50.8z"/>
						<path class="st31" d="M401.5,44.5c0.2-0.1,5,0.2,1-0.3c0.2-0.3,2.6,0.2,3.7,0.2c-0.8-0.2,0.4-0.2,0.2-0.3
							c-0.5,0-1.2,0-2.1-0.1c-0.4-0.2,1-0.1,2,0.1c-1.3-0.3,1.7-0.1-0.1-0.4c-3.9-0.4-6.7-0.4-9.5-0.2c2.2,0.1,4.7,0.1,6.5,0.4
							l-0.8,0.2c-2-0.4-3.3-0.3-5.4-0.5l4.5,0.5c2.1,0.4,0.7,0.3-1,0.3C401.1,44.4,401.4,44.5,401.5,44.5z"/>
						<polygon class="st31" points="398.3,46.7 398.4,46.7 398.6,46.7 						"/>
						<path class="st31" d="M207,51.7l-0.4,0.1C206.9,51.7,207,51.7,207,51.7z"/>
						<path class="st31" d="M395.7,45.2L395.7,45.2L395.7,45.2z"/>
						<path class="st31" d="M216.6,51.8L216.6,51.8L216.6,51.8z"/>
						<path class="st31" d="M219.3,45.9L219.3,45.9C219,45.9,219.1,45.9,219.3,45.9z"/>
						<path class="st31" d="M216.6,51.8L216.6,51.8L216.6,51.8z"/>
						<path class="st31" d="M263.6,51.3c0,0-0.1,0-0.4-0.1C263.1,51.2,263.2,51.3,263.6,51.3z"/>
						<polygon class="st31" points="254.3,50.8 254.3,50.8 254.2,50.8 						"/>
						<path class="st31" d="M324.9,45.7c-0.5,0-0.8,0.1-1.1,0.1L324.9,45.7z"/>
						<path class="st31" d="M216.6,51.8c-0.1,0-0.2,0.1-0.5,0.1C216.4,51.9,216.5,51.8,216.6,51.8z"/>
						<polygon class="st31" points="277.7,50 277.5,50.1 277.6,50.1 						"/>
						<path class="st31" d="M282.6,50.3c-0.2,0-0.2,0.1-0.3,0.1c1.7-0.1,4.9,0,5.3-0.3c-0.6,0-3.6-0.2-3.1-0.3
							c-1.2,0.1-3-0.1-3.6-0.1c2,0.2,0.2,0.2-1.1,0.3c-1.2-0.1,0.2-0.2-0.8-0.3l-2.8,0l2.4,0.1l-0.7,0.3l0.2,0
							C282.1,49.9,278.3,50.4,282.6,50.3z"/>
						<path class="st31" d="M282.2,50.4c-0.3,0-0.5,0-0.7,0.1C282,50.4,282.1,50.4,282.2,50.4z"/>
						<path class="st31" d="M299.1,50.9c0.2,0,0.4,0,0.7-0.1C299.7,50.8,299.4,50.8,299.1,50.9z"/>
						<path class="st31" d="M175.3,49.5c0.1,0.1,2.5,0.3,2.4,0l0,0l-2.2-0.1L175.3,49.5z"/>
						<path class="st31" d="M345,46.7l-0.8,0.1l-0.2,0C344.3,46.9,344.8,46.8,345,46.7z"/>
						<path class="st31" d="M285.2,49.7c-0.4,0-0.6,0.1-0.7,0.1C284.7,49.7,285,49.7,285.2,49.7z"/>
						<path class="st31" d="M345.2,47.2c0.3,0,0.9,0.1,0.9,0.2c0.7-0.1,1.2-0.2,1.9-0.3C347.3,47.2,346.3,47.3,345.2,47.2z"/>
						<path class="st31" d="M348.1,47.1L348.1,47.1L348.1,47.1z"/>
						<path class="st31" d="M173.9,49.4l-0.6,0l0.3-0.1l-1.7-0.1c-0.2,0-0.4,0-0.7,0l0.2-0.1l-0.5,0c-1.3,0.2-4.6,0.4-5.6,0.5
							c-1.3,0.1-2.8,0.2-3.7,0.2c0.9,0,2.1-0.1,1.7-0.2c-1.8-0.1-2.7-0.5-5.8-0.1l1.8,0l-4.1,0.5c-1.4-0.2,2.1-0.3,2.6-0.4
							c-3.2,0.3-5.9-0.3-7.4,0.1c-0.2-0.2-0.6-0.7-2.7-0.6c1.5,0.3-1.3,0.2,0,0.5c-0.7,0.2-2.3,0-2.5,0.1l0.2-0.1
							c-3.6-0.3-4.8,0.3-6.3,0.5c-4.3,0.2-6.3,0-9.8,0.2c-0.1-0.2-1.1-0.6-2.5-0.5c-0.6,0.2-3.8,0.4-4.1,0.7c2.5,0,2-0.3,3.6-0.4
							c1.3,0.3,0.1,0.3,1.8,0.4c-1.4-0.1-6.2,0.3-7.8,0.1l0.5-0.1c-2.4-0.1-2.9-0.8-6.9-0.2l-1.9,0.2c0.1,0,0.1-0.1,0.1-0.1
							c-3.1,0.1-2.3-0.3-5.8,0.2c0.3,0,0.1-0.1,0.4-0.1c-2-0.1-4,0.3-5.5,0.5c-0.9-0.2,0.2-0.2,0.8-0.4c-3.5,0.1-7.2,0.7-9.4,1h-2.2
							c1.3-0.2,2.9-0.5,2.5-0.6c-1.2,0.1-1,0.2-2.7,0.3c0.3-0.2,1-0.4,1.8-0.6c-3.6,0-0.8,0.6-3.3,0.3c-1.1,0.1-1.8,0.3-1.9,0.5
							L85,51.5c-0.2,0.2-2.7,0.4-4.4,0.6c-0.2,0.1,1.4,0.2,2,0c-0.1,0.2-1.9,0.4-3,0.5c-0.4-0.5-7.4,0.5-6.1-0.1
							c-5.1,0.6-12.2,1.2-15.6,1.7c-1.1,0-3.4,0.1-2-0.2c-4.1,0.4-6.1,1.2-10.2,1.4c-0.3,0,1.8-0.2,1.7-0.3
							c-2.6,0.5-4.8,0.3-8.9,0.9c0.7-0.1,0.9-0.2,1-0.3c0.1,0.1-1.7,0.3-2.7,0.5c-0.6,0,0.8-0.2,0.4-0.2c-7.9,0.8-13.9,2.2-21.8,3.4
							c2.2-0.3,3-0.8,3-0.9l-2.2,0.3c-0.8,0.3-2.5,0.6-3.8,0.9c-0.2,0-0.9,0-0.2-0.2c-4.4,0.4-6.7,1.7-12,2.3l6.3-1.7l-1.6,0
							l2.8-0.7c-1.7,0.1-3.1,0.7-3.4,0.5c0.3-0.1,1.2-0.2,1.2-0.4c-1.6,0.2-1.7,0.4-3,0.6c3.1-1,9.5-2,12.8-2.7
							c0.5-0.1-0.4,0.2-0.5,0.3c1.4-0.2,2.2-0.2,4-0.6c1.1-0.4-0.9-0.1-1.7,0.1c0.1-0.2,0.5-0.3,1.5-0.4c0.2,0.2,5.3-0.6,6.6-0.5
							c5.1-0.8-0.9-0.5,4.1-1.1l1.5,0.1c2.9-0.6,6.6-1.3,9.9-1.6l-0.7,0.1c-0.5,0.2,0.3,0.2,0.7,0.2c2.5-0.1,4.7-0.7,6.3-0.6
							c2.8-0.6,7.5-1.4,10.8-1.8c0.9,0.3-4.2,0.7-5.6,1.1l3-0.3c-1.8,0.2-2.5,0.4-3.6,0.7c2.6-0.2,3.4-0.6,5.9-0.9
							c-0.2,0.1,0.2,0.1,1.3,0.1l0.3-0.3c0,0,0.2,0,0.5,0l4.4-0.5c-0.9,0-1-0.2-2.1-0.1c0.4,0.1-0.5,0.2-1.7,0.3
							c1-0.2-1.1,0-1.1-0.2c2.3-0.2,5.1-0.5,6.6-0.6l0.5,0.2c2.2-0.1,4.5-0.4,5.9-0.5l-0.5,0.2c2.6-0.2,5.2-0.4,7.5-0.4
							c2.3-0.4,5.2-0.8,7.1-1.2c1-0.3,6.8-0.1,9.5-0.6c0.2,0-1.8,0.3-2.7,0.5c1.7,0,3.1-0.5,3.7-0.2c-3.9,0.1,0.2,0.2-1.5,0.4
							c1.8-0.1,3.8-0.2,4.7-0.4c-3,0.1,1-0.5-2-0.2c2.3-0.4,5.5-0.6,8.3-0.6c0,0.1,0.3,0.2,1.4,0.2l0.8-0.2c1.3,0-2.5,0.3,0.1,0.3
							c2.7-0.5,8.1-0.1,9.3-0.8c2.1,0.2-3.9,0.4-0.8,0.6c-1.8,0.3-4.3,0.1-4.9,0.4c1.8-0.1,0.7,0.2,1.8,0.2l2-0.2l-0.4,0
							c3.3-0.4,8.5-0.4,12.7-0.6c3.6-0.4,6-0.9,10.3-0.9c-1.3,0.2,3.6,0.1,0.9,0.5c2,0.1,3.9-0.1,4-0.2c-1.7,0-0.6,0-2.1-0.1
							c1-0.2,3.3-0.2,4.2-0.1c-0.4,0-0.3,0-0.4,0.1c2.1,0.1,1-0.2,2.5-0.3c0.5,0.2,3.3,0,4.7,0.1l2-0.3c-1.1,0.2,1.9,0.1,2.2,0.3
							c1.4-0.2,2.6-0.4,4.8-0.4c-0.9,0.1,2,0.1,2,0.4c3.7,0.2,6.2-0.6,9.7-0.3c-0.1,0-0.8,0.2,0.2,0.2c0.8-0.1,2.2,0,3.1-0.1l0,0
							l0,0c0.4,0,0.7,0,0.7-0.1c1.5-0.2,2.3-0.4,5.2-0.6c-0.2-0.2-2.7-0.2-3.8-0.1l-0.9,0.2c-0.9-0.4-2.6,0.1-3.3-0.1
							c1.8-0.4,6.8-0.3,9.8-0.6c-1.8-0.3-5.9-0.4-9.4-0.4l1.5,0.1l-1.8,0l1.8,0.3c-1.7,0-3.2,0-4.8,0c1.8,0,2.6,0.3,1.5,0.3
							c-2.1-0.2-2.1,0.2-3.7,0.1c0.9,0,2,0,1.3,0.2c-3.1-0.3-3.9-0.1-6.7-0.4c0.4,0.4-3.5,0.1-3.9,0.4l1.3,0l-2.8,0.3
							c-2.6-0.3,2.3-0.4-1.6-0.6c-3.6,0-3.5,0.4-6.3,0.5c0.9-0.2,3.2-0.5,5.4-0.5l-1.4-0.1c0.7-0.1,3.9-0.1,5.4-0.1
							c-2.6,0.3,1.2,0.1,2.4,0.3c0.2-0.2-1.5-0.2,0.5-0.4c-1.8,0-2.1,0-4.5,0c5.1,0.1,4.6-0.8,9-0.7c-2,0.1,0.7,0.3,1,0.4
							c1,0,2.9-0.1,3.7-0.1l-0.7-0.3c2.6-0.1,3.5,0.6,6.4,0.2c0.4-0.2-2.6-0.1-2.1-0.1c4.1-0.2,5.5,0.3,9.1,0.6
							c0.2-0.1,0.2-0.3,1.4-0.5c-0.4,0.2,0.5,0.3-0.9,0.5c1.2,0.1,2.6,0,3.7-0.1c-2.5-0.1,1-0.3,1.5-0.4c1.3,0-0.4,0.2-1.2,0.3
							c1,0.1,2.3,0.4,2.9,0.1c0,0.2-2.9,0.5-4.9,0.6l1.3,0c-0.9,0.1-1.1,0.1-2.4,0c1.3,0.2,1.1,0.4,0.8,0.5c-0.2,0,0.1,0-0.1-0.1
							c-1-0.1-1.8,0-1.6,0.1c-0.9,0.3,1.4,0.2,2.2,0.3l1.6,0l5.4-0.9c2.3-0.1,3.4,0.1,5.1,0.3L200,46c2,0,3.9,0.1,2.6,0.4
							c-0.1-0.1-0.3-0.1-0.8-0.1l-0.3,0.1l-0.1,0c2.2-0.1,3.5-0.1,3.6-0.1c-3.7,0.3-0.2,0.4-0.8,0.9l3.7-0.1c-2.2-0.2,0-0.2,0.8-0.3
							c0.2,0.2,3,0,4.3,0.1l-0.1,0c1.2,0.1,3.3,0.1,4.8,0c-0.1-0.1,1.9-0.5,2.8-0.7c-2.6-0.1-1-0.2-1.2-0.4c0.3,0,0.7,0,0.8,0
							c0.4-0.1-0.5-0.1-0.6-0.2c-2.7,0.1-5.6,0.1-6.7,0.4c0.8,0.2,1.4-0.1,2.4,0c-1.4,0.2-3.1,0.2-5.4,0.1l-0.7-0.2l-2.3,0.1
							c1-0.1,0.4-0.3,2.8-0.3c-0.3-0.2-2.4,0-3.8-0.1L205,46c0.3-0.2-2.9-0.2-0.6-0.4l3.6-0.2l-1-0.2l3.1,0l-0.7,0.1
							c4.9-0.1,1.4,0.6,6.4,0.3c1.6-0.3,3.2-0.3,6.3-0.2c-2.2,0-0.2,0.2-1.1,0.4c2.2,0.2,3-0.1,4.2-0.2c0.6,0.2,1,0.3-1,0.3
							c-0.3,0.4,2.6,0,2.8,0.3c6.6,0.1,5.3-1.1,13.1-0.6l-0.3,0.1c4.9-0.1,7.8,0.1,12.4,0l3.6,0.4c-0.8,0-3,0.3-2,0.5
							c-1.7-0.4-3.6-0.3-5.5-0.5c-0.2,0.1,0.6,0.2,0.9,0.2c-1.1,0-1.7-0.2-3.2-0.1c0.1,0.1,1.7,0.2,0.5,0.2l-2-0.3
							c-2.7,0.1-1.4,0.6-4.6,0.4c0.6-0.2,1.8-0.5,3.1-0.5c-1.5-0.1,2-0.1,0.6-0.3c-2.1,0.3-3.1,0-6,0.2c0.3,0,0.4-0.1,1.1-0.1
							l-4.1-0.2c1,0.2-3.4,0.2-3,0.4c4.3,0.2,3.1,0,8,0.2c-1.4,0-3.2,0.3-4.1,0.5c0,0-0.1,0-0.3,0c-0.8,0.3,0,0.3,0,0.8
							c2.3-0.3,3.8,0,6.4-0.2c0.5-0.3-1.5-0.4-2.9-0.3l2.4-0.1l-0.5,0.1l6,0.2c-1.1,0-1.5,0.1-2.1,0.3c0.8,0,1.5,0.1,2.3,0.2
							c-0.2-0.3-0.1-0.4,0.7-0.4c3.8,0.1,6,0.4,7.4,0.7l0.4,0c-0.6-0.3,2.7-0.4,3.9-0.7c-0.1,0.3,2,0.2,3.1,0.3
							c0.6-0.3-0.2-0.7-1.5-1c-2.6,0.2-1.5,0.3-2.7,0.6l-4.2,0.2l0.9-0.2c-2.1-0.1-4.1,0.2-3.9-0.1c1.1-0.2,2.9,0,4-0.2l-1.4-0.1
							c2.4-0.3,1.2,0.3,4.2,0.1c-1.1-0.3,0.3,0,1.5-0.2c-1-0.2-5.2,0-4.3-0.4c1.5-0.2,5.1,0.6,7.2,0.2l-0.1,0.1c3,0.1,4-0.2,5.1-0.3
							c1.3,0.2,3,0,4.4,0l0,0.1l1.9,0c-0.9,0.2-2.3,0-3.9,0l0.2,0.2c-1.9-0.3-3.2,0.1-4.7,0.3c2.2-0.2,6.1,0.1,6.6-0.4l1.3,0.3
							l0.6-0.1c1,0.2,0,0.5-2,0.5c-0.3-0.1-0.5-0.1-0.4-0.1c-0.9,0.1-1.7,0.3-3.9,0.2l1.2-0.1c-2.7,0-5.2,0-6.1,0.3
							c3.9,0.1,7.8,0.2,11.4,0.2c1.1-0.5,2.4-0.8,2.9-1.4c2.5-0.1,5.8-0.1,7.9,0.1l-0.2,0.1c1,0.1,2,0,2.8,0c1.1,0.1-0.8,0.3,0,0.3
							l3.5-0.2c-0.2,0.2-3.2,0.2-4.6,0.2c0.3,0,0.8-0.1,0.6-0.1c-1.6-0.1-4.7,0.3-5.4-0.1c-0.8,0.1,1.6-0.2-1.1-0.3
							c-1.8-0.1-2.4,0.2-2.6,0.3c0,0.1,2.8,0.2,1.8,0.4c1.4,0,2-0.2,3.8,0c-1.4,0-3.3,0.3-4,0.1c-2.8,0.2-2.4,0.8-1.1,0.9
							c-0.3-0.2,5-0.2,1.4-0.5c1.6-0.2,4.6-0.2,6.7-0.4l-0.1,0l2.6-0.1c-0.4,0.1-1.2,0.1-1.2,0.3l3.7-0.3c-2.1,0.2,1.3,0.2,2.2,0.3
							c0.4-0.2,1.8-0.3,0.5-0.5c-1.5-0.2-0.9,0.1-2.3,0.1l2-0.3l0.2,0l1.2-0.3c2.7,0-1.2,0.6,2.3,0.4l-0.5-0.4c4,0,9.1,0.3,11.9,0
							c-0.8,0.2-1.1,0.6,0,0.7c-1.2,0-3.7,0.1-5.4,0.2c-0.3-0.1,2.2-0.4,4-0.5c-0.9-0.5-4.7,0.5-5-0.1c-4.8-0.1-3.6,0.7-7.7,0.3
							c-0.1,0.3-1.2,0.1-1.4,0.4c1.2,0.4,5.5,0,8.1,0.1c-0.3,0-0.8,0.1-0.9,0.1c1.9,0,2.7,0,4-0.1l-0.2,0c2.3-0.3,1.4,0.1,2.8,0.2
							c0.5-0.1,2.4-0.1,2.1-0.2l2.5,0.1l-0.1-0.3c1.4-0.1,1.7,0.1,3-0.2l0-0.3l-3.5,0.1c1.7-0.2,0.5-0.3,2.4-0.4
							c-2.1,0.4,1.5,0,1.8,0.3l1.4-0.2l-0.4,0.1c1.1,0.1,1.3-0.2,2.6-0.2c-1.5,0-2.6-0.2-4.5,0.1c1.4-0.2,4.2-0.6,4.9-0.6
							c1.5-0.2,2.5-0.1,3.9-0.2c-2.7,0.3,1,0.7-4.4,0.9c0.1-0.1,0.5-0.1,0.7-0.1c-0.7-0.3-3.2,0.2-4.4,0.4c0.3,0.2-0.9,0.3,1.2,0.3
							c-0.7-0.1,1.7-0.5,3.7-0.5l-0.3,0.4l2.9-0.2l-0.3,0c1.1,0.2,3.1-0.3,5-0.3c1.4-0.3,6.9-0.6,4.5-0.8c1.8,0.1,3.3-0.3,5.2-0.6
							l-2.4,0c2.8-0.5,2-0.3,4.3-0.9c0.2,0.1,0.8,0.1,0.3,0.3c3.8-0.3,9.3-0.6,11.5-1.1c2.7-0.2,3.2,0.3,7-0.2
							c0.8-0.1-0.6-0.3,1.9-0.4c0.2,0-2.4,0.5,0.4,0.2c2-0.5,4.7-0.1,7.3-0.5c1.4,0,3.8-0.1,3.3,0.2c-2.2,0-5.3,0.3-5.7,0.4
							c0.3-0.2-1.6-0.1,0-0.3c-3.3,0-2.1,0.3-5.1,0.3c-0.2,0.1,1.5,0.2,2.2,0.1c0,0.3-5.8,0.6-3.2,0.8c3.1-0.2,4-0.9,6.8-0.7
							c-1.1,0.3-2.8,0.2-4.2,0.6l2.3,0l1.6-0.3l-0.1,0.1c4,0.1,3.6-0.6,7.2-0.9c-2.1-0.2,0.5-0.6-1.1-0.7c2.4-0.1,4.1-0.1,4.2,0.2
							c-4.5,0.4-0.2,0.4-4.3,0.8c0.7,0.1-1,0.5,1.5,0.5c2.8-0.3-0.8-0.3,1.9-0.5c0.2,0,0.3,0.1,0.2,0.1c1.3-0.2,1.5,0,3-0.2
							l-0.4,0.1c1.9,0.2,2.1-0.3,3.7,0c-0.7-0.3,1.1-0.2,2.1-0.4c-1.7-0.1-2.6-0.5-5.8-0.4c-0.4,0.2-0.1,0.3-1.5,0.5l2.1-0.1
							c-0.5,0-0.8,0.1-1.2,0.2l-2,0c2.6-0.2,1.4-0.4,2.5-0.7c2.4,0,2-0.1,3.4,0c-0.1,0.3,4.6,0.4,7.3,0.7c-0.4,0-1,0-1.3,0
							c-2,0.1,1.4,0.3,1.4,0.4l1.4-0.1c-0.3,0-0.6,0.1,0,0.1c2,0,1.8-0.3,3.8-0.3c0.1,0.2-1.5,0.4-0.3,0.5c0.4,0.1,1.7,0.6,4.3,0.6
							c0.2,0,0.9,0,1.6,0c-0.1,0-0.2,0-0.3,0l1.7,0.3c-1.5,0.2-2.9-0.3-4.4-0.2l-0.1,0.3c-1.1-0.1-2.7,0-3.4,0.1
							c1.7,0.1,2.1,0.1,4,0.1c0.3,0.2-1.1,0.2-1.3,0.2l0.3-0.1c-2.3-0.4-3.5,0.1-6.3,0c-0.4,0-0.2,0-0.1-0.1
							c-2.3,0.2-4.6-0.2-6.9,0.2l0.7-0.1c-1.5,0.1-4.6,0.3-7.6,0.7l0,0.1c0.3,0.1-0.8,0.1-1.4,0.1l0,0c-1.5,0.2-2.9,0.3-4.1,0.5
							c0.4,0.1,0.9,0.1,1.4,0.1c0.5-0.1,3.2-0.1,2.8-0.4c1.3,0.1,3.3-0.2,4.3-0.1c-1.7-0.2,1.2-0.3,1.5-0.4c0.6,0.2,2.5,0,2.3,0.2
							c0.3,0.1-0.8-0.2-1.6,0c-1.8,0.2,3.3,0.2,1,0.4c2.8-0.2,6.6-0.1,9.5-0.2l-1.6-0.1c1.3,0.1,4.4,0.1,4.6,0.2c-1,0-2.1,0-3.3,0
							c-0.1,0.3,3,0.1,3.1,0.3l3.6-0.2l-1.6-0.1c1-0.1,4.3,0.3,6.7,0.6c-1.4,0.2-3.7-0.3-6.2-0.3c-1.9,0,1.1,0.4-0.6,0.4
							c0.4,0.1,1.6,0.2,2.2,0.1l0.7,0.1c-1.6,0.2-5.1-0.1-7.4,0.1c0.2,0,0.4-0.1,0.5-0.1c-1.8-0.2-3.6-0.2-5.4-0.2
							c0.9,0.1,1.3,0.1,1.8,0c0.1,0.1-1.6,0.1-2.2,0.1c1.6,0.1,0.3,0.2,1.3,0.3c-1.1,0-1.9,0-3.2,0c-0.7-0.1,0.6-0.2,0.4-0.3
							c-1.3,0.1-1.9-0.3-3.9-0.1c2.6,0.1-0.7,0.4-1.6,0.5l0.4,0c-0.8,0.2-1.5,0.2-2.1,0.1c1.1-0.1,2.1,0,1.8-0.2
							c-0.7,0-1.4,0-2.2,0.1l0.7-0.2l-3.5,0.2c-0.5,0.2-1.5,0.5-1.9,0.7c-0.8-0.1-2,0-2.8,0.1l0.4-0.1c-1.5-0.1-5,0.2-5.2,0.4
							c-1.1-0.1,7.7-1.4,0-0.8c-3,0.2-1.8,0.6-3.5,0.8c0,0,0.1-0.1-0.1-0.1c-1.3,0.1-1.4,0.2-2.5,0.4c0.8,0,1.9-0.1,2.3-0.1
							c-0.4,0.2-2.7,0.2-3.7,0.4c1.3-0.4-2.5,0.1-1.5-0.2c-2.6,0-5.3,0.4-6.6,0.8c-1.8-0.2-3.1,0.3-5.9,0.3c0.4,0,1.2-0.1,1.8-0.2
							c1.6-0.4-2.9,0.1-0.5-0.3c-0.5,0.1,0,0.1,0.5,0c1-0.1,1.8-0.3,1.6-0.4l-2.3,0l0.8-0.1l-3.5,0c-0.1,0.1,0.2,0.1,0.4,0.1
							c-4.1,0.2-8.7,0.8-12.3,1c-0.6,0.7-8.8,1-11.6,1.6c0.8-0.2,1.2-0.6,0.7-0.7c0.6-0.1,1.9-0.4,3.4-0.5c0.2,0.1,2.1,0.1,0.9,0.3
							c4-0.4-0.6-0.3,0.6-0.6c-4.5,0.4-7.1,0.9-9.9,1.3l-0.1-0.1l-2.1,0.3c1.8,0,1.7,0.4-0.6,0.3l0.3,0c-1.3-0.1-4,0.2-6,0.3
							l-1.4,0.3c-2,0-2.1-0.4-2.8-0.7c-3.2,0-5,0.4-7.2,0.6c-1-0.2-5.7-0.3-3.2-0.5c-2.8,0.2-2.3,1.2-7.1,0.6l1.3-0.2
							c-4.7,0-11.3,0.3-13.4,0.1c1.7-0.6-5.8-0.7-6.6-1.3c0.2,0.1-1.5,0.2-1.8,0.3c-0.4-0.1-1-0.2-1.7,0c1.8,0.1-1.3,0.6,2.2,0.4
							c-1.8,0.4-4,0.7-7.9,0.7l0.1-0.3l3,0.1c-0.3-0.2,1.3-0.2,1.9-0.2c-5.7-0.2,0.7-0.6-5-0.6c-0.6,0.2-0.2,0.1-1.7,0.1
							c0.7,0,0.8-0.2-0.3-0.2l-1.1,0.2c-2-0.5,3.3-0.2,1.6-0.6c2.2-0.2,6.1-0.2,5.4-0.6c-3.6-0.2-3.3,0.6-7.1,0.4l-0.4-0.1
							c-1.3,0.1-1.6,0.3-2.3,0.4c-0.1-0.1-0.4-0.1-1.3-0.2c-2.3,0.3-3.8,0.4-5.9,0.7c5.6-0.2,4.8,0.3,10.5,0.1
							c-0.9,0.1-4.9,0.1-5.2,0.5l0.1-0.3c-1.9,0.1-3.7,0.2-6.1,0.1l1.4-0.1c-3.1,0.1-5.2-0.5-7.6-0.1c0.9,0,1.6,0,2.1,0
							c-1.6,0.1-3.6,0-5.3,0l-3.6,0.4c0-0.1-2.2-0.2-1.1-0.4c-2.6-0.2-3.8,0.1-5.3,0.2c-2.6-0.3,2.3-0.1,2.6-0.5
							c-3.6-0.2-7.5-0.1-9.6,0.1c0.7,0.1,1.1,0.1,1.1,0.2c-0.1-0.1-1.6-0.1-2.4-0.1l-0.6,0.2c-1.4-0.1-1.2-0.2,0-0.3
							c-1.3,0-2.9,0.3-4.2,0c2.2-0.2,5.1,0,6.2-0.1c-4.7,0.1-4.7-0.6-10.6-0.4c-0.1-0.1,0.9-0.2-0.2-0.2c-2.6,0-0.7,0.3-1.5,0.5
							c2-0.1,3,0,4.1,0.3l-0.5,0.1c-0.1-0.1-1.4-0.1-1.7-0.2l-0.3,0.3c0.2-0.3-1.9-0.6-3.5-0.5c1.6,0.2,1.2,0.2,1.6,0.6
							c-2.3,0.3-2.5-0.3-5.1,0c0.2-0.1,2.4-0.2,0.5-0.3c-1.6,0-1.4,0.2-2.4,0.3c1.2-0.3,0.9-0.4,2.2-0.8c2.8,0,1.1,0,3.9-0.1
							l-2.3-0.2c2.4,0,1.7-0.3,1.9-0.4c-4.1-0.3-3.1,0.4-5.7,0.3c-1.3,0.2,2.4,0.1,0.5,0.2c-2.4-0.1-0.6,0.2-3.3,0.3l0.5-0.1
							c-0.8-0.2-1.7,0-2.6,0c-1.1,0.1,1.2,0.9-3.2,0.9c0.2-0.1,0.3-0.1,0.3-0.1l4.3-2.2c-4.4,0-9.6-0.1-14.7-0.3
							c-1.2-0.4,3.7-0.4,3.4-0.5l2.3,0.1c-0.1,0.2-4.9,0.1-2.8,0.4c4.1-0.1,6,0.1,9.9-0.3c-1.2-0.4-5.2,0-7.7-0.3c1.1,0,2,0,2.9-0.1
							c-2.4-0.1-5-0.1-7.7-0.2l-0.6,0.1c1.8,0,3.1,0.1,3.3,0.1c-2.4,0-4.5,0.2-4.7,0.5l0.4,0l-0.9,0.1L173.9,49.4z M16.2,58.7
							l0.3-0.2C16.5,58.6,16.6,58.6,16.2,58.7z M221.7,48.6c-3.3-0.1-6.5-0.2-9.7-0.3c5.6,0.7,9.6,1.2,0.2,1.1l-0.6,0
							c1.2,0.1,3.4,0.1,5.3,0.1c1.6-0.2,6.8-1,6.8-1c-0.6-0.2-1.4,0-2.4-0.1L221.7,48.6z M224,49.7c1.8,0.1,1.4-0.1,1.7-0.2l-1.9,0
							C224,49.6,224.1,49.6,224,49.7z M225.6,49.4c-0.2,0-0.4,0-0.5,0L225.6,49.4z M189.7,48.9l0.2,0l-1.3,0
							C188.8,48.9,189.1,48.9,189.7,48.9z M193.5,49.3l0.4-0.2l-1.2,0C192.8,49.1,192.9,49.2,193.5,49.3z M205.5,50.1
							c0.8-0.3,3.3-0.3,3.5-0.6c0.2-0.1-0.4-0.1-1-0.1c-0.7,0-1.4,0-2.1,0c0,0-0.2,0.1-0.4,0.1c0.7,0,1.2,0.1,0.9,0.3
							c-1.9-0.4-1.7,0.3-3.8,0.2C201.9,50.2,204.8,50.2,205.5,50.1z M365.1,45.8c0.1,0,0.3,0.1,0.6,0.2l-1.5,0.2
							c-2.6,0.1-4.7-0.2-7,0.3c-1.1,0-1.7-0.2-2.3-0.3c0.5,0,1,0,1.5,0C362.9,45.2,359.8,46.5,365.1,45.8z M335.1,47.5
							c0.3,0,0.4-0.1,0.4-0.1c-5.8,1.1-10.5,1.6-13.7,1.8c0.6,0.2,3.5,0.1,4.8,0.1l-1.2,0.3l-0.8-0.1l-2,0.4c0.6,0.1,2.2,0,3.4,0
							c0.1-0.1,3.6-0.6,4.6-0.9l-2.9,0c0.8,0,4.5-0.4,6-0.5c0-0.1-2.6-0.1-2.9,0.2c-0.3-0.2,2.6-0.4,0.8-0.5
							c2.2-0.4,5.8-0.5,7.4-0.5l0.3,0.3c1.8,0,1.2-0.5,3.3-0.5c-2.6,0.3,0.5,0.3-1.6,0.5c0.7,0.1,0,0.3,2.1,0.1
							c1.7-0.6,2.2,0.1,3.8-0.4c1.1,0-1.2,0.4,1,0.2c2.5-0.4,2.3-0.6,2.4-0.9c-2.3,0.1-2.6,0.6-4.5,0.7l3.7-0.8
							c-0.7,0-1.2,0-1.6,0.1c0.8-0.1,1.4-0.2,1.9-0.4l0.9-0.2c-2.1,0.2-4,0.3-4.4,0.2l0.3-0.2c-0.8-0.1-2,0.1-2.6,0.3
							c-1.9,0.2-3.8,0.5-4.3,0.4l0.7-0.2C338.3,47.2,338.1,47.3,335.1,47.5z M257.6,49c1.4,0.6,3,1.1,9.7,1l-0.5,0
							c3.4,0.4,6.6-0.4,10.7,0c-2,0.2-1.9,0.2-4.1,0.6l2.1-0.1c-0.6,0.3,1.5,0.2,3.1,0.2l-1.4,0.3c-0.9-0.1-3.4-0.2-3.3-0.1
							c0.5,0-3.2-0.5-5.3-0.4c0.2,0.2,4.5,0.2,2.6,0.6c1.7-0.2,1.9,0.1,3.7,0c-1.7,0.2-0.4,0.3-1.7,0.5l2.9-0.1
							c0.1,0.1-4.2,0.1-1.9,0.5c1.2-0.1,4.3,0.1,4.3-0.2l0.1,0.1c2.2,0.1,1-0.4,3.6-0.2c0-0.1-0.5-0.2-1.4-0.2
							c-0.8,0.1-0.9,0.2-2.6,0.3c-0.7-0.2,2,0,0.9-0.3c-0.6-0.2-4.4,0.1-3.2-0.3l2.2,0.1c0.1-0.3,1.6-0.2,1.6-0.5
							c1.3-0.1,2.6,0.2,3.9,0c0.6-0.2-0.4-0.5,1.8-0.3c1.8,0.4,6.9,0.3,8.9,0.3l1.7-0.2c-0.1-0.2-3.2,0-2.1-0.2l2.6-0.1l-0.2,0.1
							c0.9,0,1.8-0.1,2.6-0.2c-0.8,0.2-2.7,0.1-2.4,0.4c1.2,0.1,1.4,0.2,2.6,0.1c-0.3,0-0.5,0.1-0.4,0.1c2.5,0.1,2.4-0.3,3.1-0.4
							c2.5-0.4-2.6-0.3-2.2-0.6c2.5-0.1,4.9-0.1,7.4-0.3c-0.6,0.1-1.3,0.2-1,0.3c1.8,0,0,0.2,2.6,0.1c-0.2-0.4,3.2-0.4,5-0.7
							c0.8,0.1,1,0.1-0.8,0.2c0.2,0.2,2.7,0,3.6,0c0.5-0.1,1.4-0.2,1.9-0.3c-0.7-0.1-0.4-0.2,1.1-0.5l0.1-0.1
							c-2.6,0.1-6.7,0.1-8.3,0.4l0.5-0.1c-3-0.1-6.5,0.7-7.9,0.3c0.1-0.2-0.6,0-0.6-0.3l-2.2,0.2l0.5-0.1l-3.8,0.1l0.1,0
							c-1.8,0.2-3.2,0.4-4.3,0.6c0,0.1,0.1,0.2-0.5,0.2c-0.6,0.1-1.1,0.1-1.5,0l0,0v0c-0.9,0-1.5-0.2-2.7-0.3l3.5,0
							c0.3-0.2,0-0.4-1.7-0.5c0.7,0,1-0.2,0.1-0.2c-0.1,0-2.3,0.1-1.5,0.3c-3.3,0.1-8.7-0.5-13.8-0.1c3.6-0.2-2.9-0.3,1.1-0.3
							c-2.8-0.3-2.4,0.3-5.3,0.2c-0.2-0.1,1.6,0,2.2-0.2c-4.8-0.2-8.1,0.4-12.7,0.3l-0.2-0.2C259.6,48.9,258.6,48.9,257.6,49z
							 M248.5,49.2l-2.7,0.1l0.3,0l-2.7,0.2c1.6,0.1,2.7,0.4,0.4,0.5c0.2-0.1-0.5-0.2,0.3-0.3c-1.5-0.2-4.9-0.3-4,0
							c3-0.3,0.7,0.5,3,0.2c-1.3,0.2-2.5,0.1-3.7,0.2c1.2-0.2-0.3-0.5-2.1-0.6c-0.8,0-3,0-4.3,0c0.5,0.2-0.7,0.3,1.5,0.4
							c-0.8,0-2,0.1-3.4-0.1c0.5,0,1.5,0,1.4-0.1c-0.9-0.2-1.9-0.2-2.5-0.3l-1.4,0l0.3,0.1l-1.5,0.2c2-0.1,0.9,0.1,0.9,0.2
							c0.1-0.3-1.3,0-2,0l1.5,0.3c-0.7,0.1-2.6-0.2-2.2,0c3.2,0.2,4.4,0.1,7.3,0.1l-1.2-0.2c3.3-0.1,2,0.4,5.7,0.4
							c1.5-0.2,5.5,0.1,5.6-0.3c-0.5,0.1,2.3,0.4,3.5,0.2c1.4-0.3,5.6-0.3,4.3-0.5c-1.1,0-2.7,0.2-3.6-0.1l2.2,0l-1.4-0.2
							C248.9,49.7,248.8,49.5,248.5,49.2z M199.1,46.4L199.1,46.4L199.1,46.4L199.1,46.4z"/>
						<path class="st31" d="M397.8,44.9c0.6,0,2.2,0.1,1.9-0.1C399.7,45,396.9,44.6,397.8,44.9z"/>
						<path class="st31" d="M399.6,45.2c0.1,0,0-0.1,0.7-0.1l-1.9-0.1L399.6,45.2z"/>
						<path class="st31" d="M401.5,46.8c1-0.1,1.6-0.1,3.2,0.1c0.5,0.6-2.5-0.2-3.3,0.3c2.8,0.3,3.7,0,6.1,0.2
							C406.3,47.1,401.6,46.4,401.5,46.8z"/>
						<polygon class="st31" points="400.1,47.4 401.7,47.4 401.6,47.3 400,47.3 						"/>
						<path class="st31" d="M365.5,42.8c-0.2-0.2-1.1,0.1-1.7,0.1C364.3,42.9,364.9,42.9,365.5,42.8z"/>
						<path class="st31" d="M51.6,51l-12.2,1.5C42.9,52.1,46.1,51.7,51.6,51z"/>
						<path class="st31" d="M325.2,46.9c3.2-0.4,4.7-0.8,8-1.1c-4.4,0-5.7,1-9.4,0.9L325.2,46.9z"/>
						<path class="st31" d="M326.2,45.5c0.6,0.3-2.5,0.5-2,0.7c2.2-0.2,1-0.4,3-0.5L326.2,45.5z"/>
						<polygon class="st31" points="341.4,49.4 340.5,49.6 341.3,49.5 						"/>
						<polygon class="st31" points="311.5,46.8 311.8,46.7 310.2,46.7 						"/>
						<polygon class="st31" points="312.2,46.6 311.8,46.7 311.8,46.7 						"/>
						<polygon class="st31" points="340.2,50.1 341.7,50.1 342.4,49.9 						"/>
						<path class="st31" d="M327.1,49.6l1.3-0.2C328.1,49.4,326.3,49.4,327.1,49.6z"/>
						<polygon class="st31" points="301.5,47 299.9,47.1 300.1,47.1 301.7,47 						"/>
						<path class="st31" d="M316.8,51.1c0.9,0.2-2.6,0.2-0.7,0.3C317.8,51.3,317.1,51.2,316.8,51.1z"/>
						<path class="st31" d="M297.3,50.2l-0.7,0C296.9,50.2,297.2,50.2,297.3,50.2z"/>
						<path class="st31" d="M297.3,50.2c0.7,0,1.4,0.1,1.9,0C298.4,50.1,298,50.2,297.3,50.2z"/>
						<path class="st31" d="M289.3,50.2l0.6,0c-0.6,0.1-0.3,0.1,0.2,0c0.7,0,0.6-0.1,0.7-0.1l0.4-0.1l-0.6,0.1
							C289.7,50.1,289.1,50.1,289.3,50.2z"/>
						<path class="st31" d="M259.6,46.1c2.3,0.1,2.9,0.2,2.8,0.3c2.2,0.1,1.9-0.2,3.2-0.3C263.1,46.1,262.6,46,259.6,46.1z"/>
						<path class="st31" d="M265.6,46.1l0.9,0C266.1,46.1,265.9,46.1,265.6,46.1z"/>
						<polygon class="st31" points="298.7,52.2 297.2,52.5 297.8,52.5 						"/>
						<path class="st31" d="M256.1,45.9c0.4,0,1.1,0,1.5,0.1C257.7,45.8,255.7,45.9,256.1,45.9z"/>
						<path class="st31" d="M265.1,49.6c0.2,0.1,1.7,0.1,2.3,0.1C266.6,49.7,265.9,49.3,265.1,49.6z"/>
						<path class="st31" d="M249.4,46.6c0.4,0,1.1,0.1,0.8,0.3C250.8,46.8,251.7,46.5,249.4,46.6z"/>
						<polygon class="st31" points="260.8,49.5 261.2,49.6 262.8,49.5 						"/>
						<path class="st31" d="M266.5,52.3c1.8-0.2-2.9-0.5,0.3-0.7c-4-0.3,0.3,0.3-2.7,0.3C265.9,51.9,266.7,52.2,266.5,52.3z"/>
						<path class="st31" d="M264.1,51.8l-0.8,0C263.6,51.8,263.9,51.8,264.1,51.8z"/>
						<path class="st31" d="M238.8,50.2c0.3,0,0.4,0,0.6-0.1L238.8,50.2z"/>
						<path class="st31" d="M254.7,51.9l2.7-0.3c-1.8,0.2-6.3,0.1-6.1,0.5c1.5,0.1,3.2,0,4-0.1L254.7,51.9z"/>
						<path class="st31" d="M223.7,45.6l1.2-0.1l-1.5-0.1C223.9,45.5,223.1,45.7,223.7,45.6z"/>
						<path class="st31" d="M223.2,45.4l0.3,0L223.2,45.4z"/>
						<path class="st31" d="M243.9,50.1c0.9,0,1.6,0,2.4,0C245.9,50,243.8,49.9,243.9,50.1z"/>
						<polygon class="st31" points="215.5,46 217.4,46 215.3,46 						"/>
						<polygon class="st31" points="206.5,45.4 206.2,45.3 204.6,45.4 204.9,45.5 						"/>
						<path class="st31" d="M218.2,51.9c1.3,0,2.3-0.2,2-0.3l-2.5,0c0.6,0.3,0.7,0,2.2,0.1L218.2,51.9z"/>
						<path class="st31" d="M139.7,46c0.6-0.2,3.3-0.1,3.5,0c-0.4,0.1-1.9,0.2-0.9,0.3l2.2-0.5c2.9,0.2-2.2,0.6-3.7,0.8
							c3,0,3.9-0.3,7-0.3c-0.9,0-1.5-0.1-2-0.2c-0.1-0.3,2.8-0.2,4.9-0.3c-1.3-0.1-0.6-0.2,0.4-0.4c0.2,0,0.3,0,0.4,0l0.3,0l-0.3,0
							c0,0,0-0.1-0.2-0.1c-1.8,0.1-3.1-0.1-4.3-0.1c1.1,0.5-3.9,0.2-5.3,0.4l-1.7,0.1l-0.6,0c-0.1-0.1,0-0.1,1-0.2
							c-0.8,0.1-3.4,0.1-3.2,0.3l-6,0.1l-0.5-0.1c-0.2,0-0.2,0.1-0.2,0.1c-8.7,0.3-17.4,0.5-26.1,0.9c1.3,0,2.4,0,3.7,0
							c-2,0.4,2.2,0,1.6,0.3c-0.9,0.2-2.2,0.2-3,0.1c-0.3,0.2,0.8,0.2,0.7,0.4c3.3,0,3.8-0.7,7-0.7c-0.1,0.2-1.1,0.4,1,0.3l-0.5,0.1
							c3.4-0.3,2.6,0.3,4.7-0.2l0,0.3c1.5-0.2,4.5-0.3,6.2-0.4l-0.1,0.1c4.7-0.4,2.6-0.2,7.9-0.4l-2.4,0.4c1.8,0.1,2.2-0.2,3.5-0.2
							c-0.1,0.1,0.2,0.2-1,0.3l6.4-0.6C141.8,46,139.9,46.1,139.7,46z"/>
						<path class="st31" d="M147.8,46.2c0.3,0,0.7,0,1.2,0C148.6,46.2,148.2,46.2,147.8,46.2z"/>
						<path class="st31" d="M102.7,46.7l1.8-0.1C104,46.6,103.4,46.7,102.7,46.7z"/>
						<path class="st31" d="M157,45.6c-1.1-0.1,0.8-0.2,1-0.3l-4,0c0,0.1-0.4,0.2-0.3,0.3L157,45.6z"/>
						<path class="st31" d="M152.9,45.1c-0.1,0.1-0.6,0.1-1,0.2l2.2,0C154,45.2,153.8,45.2,152.9,45.1z"/>
						<polygon class="st31" points="153.4,50.5 152.7,50.5 151.6,50.6 						"/>
						<path class="st31" d="M142.4,50.2c0.8,0.1,2.4,0,3-0.1C143.5,50.2,144.3,50.1,142.4,50.2z"/>
						<polygon class="st31" points="144.7,51.8 142.9,52 143.1,52 						"/>
						<path class="st31" d="M89.2,48.4l-0.9,0.1C88.7,48.5,89,48.5,89.2,48.4z"/>
						<path class="st31" d="M104.4,47.4c-4.2-0.1,2.8-0.4,1.4-0.7l-2.3,0.2l0.2-0.1l-2.8,0.2c0.6,0.1,1,0.1,0.9,0.3
							c-3.8,0.1-1.2-0.2-4-0.3l-4.2,0.2l0.3-0.1c-0.4,0-0.5,0.1-0.6,0.1l-14.1,1c-2.6,0.3,1.4,0.2-0.4,0.6c3-0.2,7.4-0.3,7.6-0.7
							c-0.1,0.1-0.3,0.2,0.3,0.2l1.7-0.4l-1.6,0c1.7-0.4,7.3-0.7,8.3-0.5c-3.2,0.3-1.6,0.5-6,0.6c0.2,0.1,1,0.2,0,0.3
							C94.4,48,99,48,104.4,47.4z"/>
						<path class="st31" d="M52.4,51.2L52.4,51.2C52.4,51.2,52.3,51.2,52.4,51.2z"/>
						<path class="st31" d="M54.1,51.1l2.5-0.6l-3.9,0.4l-0.3,0.3c0.3-0.1,1.7-0.4,2.3-0.3L54.1,51.1z"/>
						<path class="st31" d="M59.5,50c-2,0.3-1.9,0.6-0.8,0.6c-1.9,0.3-1-0.2-2.3,0.2c0.1,0.2,2.4-0.1,2.9-0.2L59.5,50z"/>
						<polygon class="st31" points="74.6,48.9 74,49.1 75.4,49 						"/>
						<path class="st31" d="M74,49.1l-1.4,0.1c0.1,0.1,0.2,0.2,0.4,0.2L74,49.1z"/>
						<path class="st31" d="M68.9,49.4c-0.6,0-1.3,0.1-2,0.1L68.9,49.4z"/>
						<path class="st31" d="M70.5,49.3L70.5,49.3l-1.6,0.1C69.5,49.4,70,49.3,70.5,49.3z"/>
						<path class="st31" d="M72.6,49.2c-0.2-0.2-0.5-0.4-2.5-0.2l0.4,0.3L72.6,49.2z"/>
						<polygon class="st31" points="131.8,51.8 130.2,51.9 130.4,51.9 132,51.8 						"/>
						<path class="st31" d="M122.6,51.8c-0.4,0-0.7,0.1-1,0.1C122,52,122.4,51.9,122.6,51.8z"/>
						<path class="st31" d="M115.8,53.5c-1.9-0.1,2.6-0.4-0.9-0.3c-0.3-0.2,1.3-0.5,2.9-0.4c-0.1,0.2-1.6,0.2-0.6,0.3
							c1.1-0.2,1.5-0.1,1.1-0.4c1.8-0.2,2-0.4,3.3-0.6c-2.2,0.2-6.9,0.1-9.7,0.5c-1.5,0.4-0.6,0.8-0.6,1.3
							C111.6,53.9,115.6,53.8,115.8,53.5z"/>
						<path class="st31" d="M118.7,53.9c0.9,0,1.1,0,1.7-0.1C120.3,53.6,119.4,53.8,118.7,53.9z"/>
						<path class="st31" d="M98.6,51.1c-0.2,0.1-1.7,0.2-1.4,0.3l2.4-0.2C99.1,51.2,98.9,51.2,98.6,51.1z"/>
						<path class="st31" d="M100.7,51.1l-1,0.1C99.9,51.2,100.2,51.2,100.7,51.1z"/>
						<path class="st31" d="M98.5,51l0.1,0C98.7,51.1,98.7,51.1,98.5,51z"/>
						<path class="st31" d="M63.1,49.8c0-0.1-1,0-1.6,0.1C62,49.9,62.6,49.8,63.1,49.8z"/>
						<path class="st31" d="M23.2,54.7l-1,0C22.6,54.7,22.8,54.7,23.2,54.7z"/>
						<path class="st31" d="M9.4,60.4l-0.2,0.1L9.4,60.4z"/>
						<path class="st31" d="M9.2,60.5c-0.6,0.2-2.6,0.4-3.3,0.6L6,61l-1.3,0.3C5.9,61.1,8.5,60.7,9.2,60.5z"/>
					</g>
				</g>
			</g>
		</g>
	</g>
</g>
</svg>
